<?xml version="1.0" encoding="UTF-8"?>
<svg width="67px" height="28px" viewBox="0 0 67 28" version="1.1" xmlns="http://www.w3.org/2000/svg" xmlns:xlink="http://www.w3.org/1999/xlink">
    <!-- Generator: Sketch 55.2 (78181) - https://sketchapp.com -->
    <title>Group 30</title>
    <desc>Created with Sketch.</desc>
    <g id="Page-1" stroke="none" stroke-width="1" fill="none" fill-rule="evenodd">
        <g id="Features" transform="translate(-628.000000, -11056.000000)" fill-rule="nonzero">
            <g id="Group-30" transform="translate(628.124511, 11056.259764)">
                <path d="M25.169163,-2.22044605e-13 L3.58181522,-2.22044605e-13 C1.57599239,-2.22044605e-13 -3.90798505e-14,1.63936818 -3.90798505e-14,3.6155 L-3.90798505e-14,23.8636364 C-3.90798505e-14,25.8883227 1.62409457,27.4791364 3.58181522,27.4791364 L25.2173913,27.4791364 C27.2232141,27.4791364 28.7992065,25.8397682 28.7992065,23.8636364 L28.7992065,3.61677273 C28.7992065,1.63933636 27.175112,-2.22044605e-13 25.169163,-2.22044605e-13 Z M3.58181522,2.41114682 L25.2173913,2.41114682 C25.8859989,2.41114682 26.4117815,2.94194091 26.4117815,3.61683636 L26.4117815,13.2593364 L22.2093033,8.67910909 C22.0184486,8.43798773 21.6835207,8.29382273 21.3498315,8.29382273 C21.014913,8.29382273 20.7292315,8.43800045 20.4903598,8.63189091 L15.6659576,13.2604818 L12.0841424,8.7773 C11.7024457,8.29506364 10.9857989,8.15086364 10.4600478,8.53617864 L2.38764565,14.2224059 L2.38764565,3.61676955 C2.38764565,2.94187409 2.86538913,2.41114682 3.58203587,2.41114682 L3.58181522,2.41114682 Z M25.169163,25.0692909 L17.192587,15.1384864 L21.2522717,11.2818045 L26.3622609,16.9222136 L26.3634921,23.8636682 C26.3634921,24.5385636 25.8857486,25.0692909 25.1691019,25.0692909 L25.169163,25.0692909 Z" id="Shape" fill="#F5A623"></path>
                <path d="M47.3911814,20.8482798 C47.8935814,20.7971585 48.3719507,20.6093181 48.7721968,20.3037711 C49.4957661,19.6736798 50.2097045,19.0376233 50.917643,18.3980364 L48.3286891,15.8360364 C47.683243,16.5350929 47.0414276,17.2424581 46.4032122,17.9593494 L46.4032122,17.9581606 C46.0943199,18.3552432 45.9032122,18.8284128 45.8527199,19.3265389 C44.8214584,19.1291876 43.4969661,19.5928432 42.4561045,20.6223911 C40.2529661,22.7979911 41.0438584,25.5966519 39.1831814,27.4358258 C40.6182891,27.2741411 43.8779507,26.3765432 46.0797968,24.1996954 C47.1206584,23.1713345 47.5893968,21.8659563 47.3910891,20.8482171 L47.3911814,20.8482798 Z" id="Path" fill="#4A90E2"></path>
                <path d="M66.8755341,13.739019 C66.8755341,13.2872451 66.8526525,12.8366885 66.8069784,12.3932233 C66.7348614,11.6727711 66.1218707,11.1235146 65.3887014,11.1223277 C64.8322091,11.1223277 64.2889476,11.2923333 63.8322091,11.6085842 C61.8466399,12.9769625 59.6915937,13.6486581 57.8322091,13.5476146 C56.2276553,15.1299798 54.4992861,16.7813103 52.6952861,18.4351364 C52.6988919,18.438703 52.1411937,18.9416016 52.1411937,18.9416016 L51.6808553,19.3624538 C51.3887876,19.6204372 51.1039322,19.8760407 50.8202707,20.1280711 C50.4693168,21.1659581 49.623163,21.9648711 48.5582399,22.2608798 C48.2998276,23.3260972 47.7421476,24.2973929 46.9500553,25.0618233 C46.7289014,25.2805733 46.4969168,25.4826755 46.2589476,25.6776407 L46.2601494,25.6776407 C48.0341802,26.6727059 50.0112264,27.2623798 52.0463033,27.4026842 C55.8804571,27.6713655 59.654611,26.3529277 62.4656879,23.7611625 C65.2781802,21.1706451 66.8755341,17.5399885 66.8755341,13.7389885 L66.8755341,13.739019 Z M57.9139507,22.7066277 C57.2336737,23.3806972 56.2096122,23.5816277 55.3201968,23.2178407 C54.4319814,22.8528668 53.8514584,21.9945146 53.8514584,21.0434277 C53.8514584,20.0911538 54.4319814,19.2328016 55.3201968,18.8690146 C56.2096122,18.5040407 57.2336737,18.7049529 57.9139507,19.3790407 C58.3598584,19.8201016 58.6110584,20.4181146 58.6110584,21.0434581 C58.6110584,21.6676146 58.3598553,22.2655972 57.9139507,22.7066581 L57.9139507,22.7066277 Z M60.731243,18.8712364 C60.2011814,18.3481233 60.0425353,17.5599233 60.3297968,16.8751407 C60.6158553,16.1903581 61.2913353,15.743332 62.0413353,15.743332 C62.7901353,15.743332 63.4656122,16.1903581 63.7516737,16.8751407 C64.0389322,17.5599233 63.8802799,18.3481233 63.3502276,18.8712364 C63.0028737,19.2148146 62.5317045,19.4085929 62.0413353,19.4085929 C61.5497353,19.4085929 61.0785968,19.2148085 60.731243,18.8712364 Z" id="Shape" fill="#4A90E2"></path>
                <path d="M48.2877968,14.0744103 C49.9608737,12.2946755 51.6277968,10.5862798 53.2253353,9.00032332 C53.1195661,7.15877549 53.7998584,5.02371462 55.1856737,3.05488854 L55.1844719,3.05488854 C55.504195,2.60311462 55.6748719,2.0657581 55.6760719,1.51531462 C55.6748701,0.790114625 55.1195796,0.183792885 54.3912104,0.112453755 C53.9429027,0.0684663636 53.4885642,0.044687668 53.0306257,0.044687668 C49.1881642,0.044687668 45.517395,1.62467897 42.8983181,4.40660071 C40.2781334,7.18733549 38.9450873,10.9202529 39.2167796,14.7127311 C39.3586073,16.7337833 39.9595796,18.6966442 40.9727796,20.4585138 C41.1602811,20.2124211 41.364595,19.9794094 41.5845642,19.7618311 C42.356195,18.978379 43.3369642,18.4279355 44.4126873,18.1723138 C44.7119673,17.1070964 45.5304719,16.2606442 46.5929642,15.9182529 C46.8441673,15.6424377 47.0977642,15.3654355 47.356195,15.0836703 C47.3525891,15.0801039 47.8081334,14.5926659 47.8081334,14.5926659 L48.2877968,14.0744103 Z M47.8418891,3.53149723 C48.3707507,3.00719723 49.1676122,2.85027549 49.8599199,3.13322767 C50.5522276,3.41736375 51.0041661,4.08550158 51.0041661,4.82616245 C51.0041661,5.56801028 50.5522276,6.23614506 49.8599199,6.51909723 C49.1676122,6.80323332 48.3707507,6.64630549 47.8418891,6.12201462 C47.1183199,5.40631028 47.1183199,4.24598419 47.8418891,3.53149723 Z M47.3298584,12.2373668 L47.3286565,12.2373668 C46.6483796,12.9102494 45.6255181,13.1111798 44.7361027,12.7473929 C43.8466873,12.3836059 43.2673642,11.5252538 43.2673642,10.5729798 C43.2673642,9.62070593 43.8466873,8.76235375 44.7361027,8.3985668 C45.6255181,8.03477984 46.6483488,8.23569202 47.3286565,8.90859289 C48.2577334,9.82757115 48.2577334,11.318419 47.3286565,12.2375494 L47.3298584,12.2373668 Z" id="Shape" fill="#4A90E2"></path>
                <path d="M66.3610276,2.58406245 C67.0521353,1.69716245 66.989643,0.875666798 66.5124707,0.40368419 C66.0353014,-0.068298419 65.2047784,-0.131298419 64.3093322,0.553481146 C61.8561937,2.42832462 55.4462553,8.20965506 49.0604091,15.046829 L51.7154553,17.6742029 C58.6240707,11.3541159 64.4665322,5.01181158 66.3609937,2.58402897 L66.3610276,2.58406245 Z" id="Path" fill="#4A90E2"></path>
            </g>
        </g>
    </g>
</svg>