<svg width="78" height="28" viewBox="0 0 78 28" fill="none" xmlns="http://www.w3.org/2000/svg">
<g clip-path="url(#clip0_85_138)">
<path d="M74.45 0.75H3.55C2.0036 0.75 0.75 2.0036 0.75 3.55V24.45C0.75 25.9964 2.0036 27.25 3.55 27.25H74.45C75.9964 27.25 77.25 25.9964 77.25 24.45V3.55C77.25 2.0036 75.9964 0.75 74.45 0.75Z" stroke="#FFFFFF" stroke-width="1.5"/>
<path d="M20.1857 5.59998H6.975C5.8152 5.59998 4.875 6.54018 4.875 7.69998V21C4.875 22.1598 5.8152 23.1 6.975 23.1H20.1857C21.3455 23.1 22.2857 22.1598 22.2857 21V7.69998C22.2857 6.54018 21.3455 5.59998 20.1857 5.59998Z" fill="#FFFFFF"/>
<path d="M28.9018 14C31.0172 14 32.7321 12.2763 32.7321 10.15C32.7321 8.02375 31.0172 6.30005 28.9018 6.30005C26.7863 6.30005 25.0714 8.02375 25.0714 10.15C25.0714 12.2763 26.7863 14 28.9018 14Z" fill="#FFFFFF"/>
<path d="M74.5179 9.09998H35.5179V11.9H74.5179V9.09998Z" fill="#FFFFFF"/>
<path d="M27.85 19.25H27.65C27.4291 19.25 27.25 19.4291 27.25 19.65V20.35C27.25 20.5709 27.4291 20.75 27.65 20.75H27.85C28.0709 20.75 28.25 20.5709 28.25 20.35V19.65C28.25 19.4291 28.0709 19.25 27.85 19.25Z" fill="#FFFFFF" stroke="#FFFFFF" stroke-width="0.5"/>
<path d="M29.85 18.25H29.65C29.4291 18.25 29.25 18.4291 29.25 18.65V21.35C29.25 21.5709 29.4291 21.75 29.65 21.75H29.85C30.0709 21.75 30.25 21.5709 30.25 21.35V18.65C30.25 18.4291 30.0709 18.25 29.85 18.25Z" fill="#FFFFFF" stroke="#FFFFFF" stroke-width="0.5"/>
<path d="M31.85 18.25H31.65C31.4291 18.25 31.25 18.4291 31.25 18.65V21.35C31.25 21.5709 31.4291 21.75 31.65 21.75H31.85C32.0709 21.75 32.25 21.5709 32.25 21.35V18.65C32.25 18.4291 32.0709 18.25 31.85 18.25Z" fill="#FFFFFF" stroke="#FFFFFF" stroke-width="0.5"/>
<path d="M33.85 17.25H33.65C33.4291 17.25 33.25 17.4291 33.25 17.65V22.35C33.25 22.5709 33.4291 22.75 33.65 22.75H33.85C34.0709 22.75 34.25 22.5709 34.25 22.35V17.65C34.25 17.4291 34.0709 17.25 33.85 17.25Z" fill="#FFFFFF" stroke="#FFFFFF" stroke-width="0.5"/>
<path d="M35.85 17.25H35.65C35.4291 17.25 35.25 17.4291 35.25 17.65V22.35C35.25 22.5709 35.4291 22.75 35.65 22.75H35.85C36.0709 22.75 36.25 22.5709 36.25 22.35V17.65C36.25 17.4291 36.0709 17.25 35.85 17.25Z" fill="#FFFFFF" stroke="#FFFFFF" stroke-width="0.5"/>
<path d="M37.85 18.25H37.65C37.4291 18.25 37.25 18.4291 37.25 18.65V21.35C37.25 21.5709 37.4291 21.75 37.65 21.75H37.85C38.0709 21.75 38.25 21.5709 38.25 21.35V18.65C38.25 18.4291 38.0709 18.25 37.85 18.25Z" fill="#FFFFFF" stroke="#FFFFFF" stroke-width="0.5"/>
<path d="M39.85 17.25H39.65C39.4291 17.25 39.25 17.4291 39.25 17.65V22.35C39.25 22.5709 39.4291 22.75 39.65 22.75H39.85C40.0709 22.75 40.25 22.5709 40.25 22.35V17.65C40.25 17.4291 40.0709 17.25 39.85 17.25Z" fill="#FFFFFF" stroke="#FFFFFF" stroke-width="0.5"/>
<path d="M41.85 17.25H41.65C41.4291 17.25 41.25 17.4291 41.25 17.65V22.35C41.25 22.5709 41.4291 22.75 41.65 22.75H41.85C42.0709 22.75 42.25 22.5709 42.25 22.35V17.65C42.25 17.4291 42.0709 17.25 41.85 17.25Z" fill="#FFFFFF" stroke="#FFFFFF" stroke-width="0.5"/>
<path d="M43.85 18.25H43.65C43.4291 18.25 43.25 18.4291 43.25 18.65V21.35C43.25 21.5709 43.4291 21.75 43.65 21.75H43.85C44.0709 21.75 44.25 21.5709 44.25 21.35V18.65C44.25 18.4291 44.0709 18.25 43.85 18.25Z" fill="#FFFFFF" stroke="#FFFFFF" stroke-width="0.5"/>
<path d="M45.85 19.25H45.65C45.4291 19.25 45.25 19.4291 45.25 19.65V20.35C45.25 20.5709 45.4291 20.75 45.65 20.75H45.85C46.0709 20.75 46.25 20.5709 46.25 20.35V19.65C46.25 19.4291 46.0709 19.25 45.85 19.25Z" fill="#FFFFFF" stroke="#FFFFFF" stroke-width="0.5"/>
<path d="M47.85 19.25H47.65C47.4291 19.25 47.25 19.4291 47.25 19.65V20.35C47.25 20.5709 47.4291 20.75 47.65 20.75H47.85C48.0709 20.75 48.25 20.5709 48.25 20.35V19.65C48.25 19.4291 48.0709 19.25 47.85 19.25Z" fill="#FFFFFF" stroke="#FFFFFF" stroke-width="0.5"/>
<path d="M49.85 18.25H49.65C49.4291 18.25 49.25 18.4291 49.25 18.65V21.35C49.25 21.5709 49.4291 21.75 49.65 21.75H49.85C50.0709 21.75 50.25 21.5709 50.25 21.35V18.65C50.25 18.4291 50.0709 18.25 49.85 18.25Z" fill="#FFFFFF" stroke="#FFFFFF" stroke-width="0.5"/>
<path d="M51.85 17.25H51.65C51.4291 17.25 51.25 17.4291 51.25 17.65V22.35C51.25 22.5709 51.4291 22.75 51.65 22.75H51.85C52.0709 22.75 52.25 22.5709 52.25 22.35V17.65C52.25 17.4291 52.0709 17.25 51.85 17.25Z" fill="#FFFFFF" stroke="#FFFFFF" stroke-width="0.5"/>
<path d="M53.85 16.25H53.65C53.4291 16.25 53.25 16.4291 53.25 16.65V23.35C53.25 23.5709 53.4291 23.75 53.65 23.75H53.85C54.0709 23.75 54.25 23.5709 54.25 23.35V16.65C54.25 16.4291 54.0709 16.25 53.85 16.25Z" fill="#FFFFFF" stroke="#FFFFFF" stroke-width="0.5"/>
<path d="M55.85 16.25H55.65C55.4291 16.25 55.25 16.4291 55.25 16.65V23.35C55.25 23.5709 55.4291 23.75 55.65 23.75H55.85C56.0709 23.75 56.25 23.5709 56.25 23.35V16.65C56.25 16.4291 56.0709 16.25 55.85 16.25Z" fill="#FFFFFF" stroke="#FFFFFF" stroke-width="0.5"/>
<path d="M57.85 17.25H57.65C57.4291 17.25 57.25 17.4291 57.25 17.65V22.35C57.25 22.5709 57.4291 22.75 57.65 22.75H57.85C58.0709 22.75 58.25 22.5709 58.25 22.35V17.65C58.25 17.4291 58.0709 17.25 57.85 17.25Z" fill="#FFFFFF" stroke="#FFFFFF" stroke-width="0.5"/>
<path d="M59.85 18.25H59.65C59.4291 18.25 59.25 18.4291 59.25 18.65V21.35C59.25 21.5709 59.4291 21.75 59.65 21.75H59.85C60.0709 21.75 60.25 21.5709 60.25 21.35V18.65C60.25 18.4291 60.0709 18.25 59.85 18.25Z" fill="#FFFFFF" stroke="#FFFFFF" stroke-width="0.5"/>
<path d="M61.85 19.25H61.65C61.4291 19.25 61.25 19.4291 61.25 19.65V20.35C61.25 20.5709 61.4291 20.75 61.65 20.75H61.85C62.0709 20.75 62.25 20.5709 62.25 20.35V19.65C62.25 19.4291 62.0709 19.25 61.85 19.25Z" fill="#FFFFFF" stroke="#FFFFFF" stroke-width="0.5"/>
<path d="M63.85 19.25H63.65C63.4291 19.25 63.25 19.4291 63.25 19.65V20.35C63.25 20.5709 63.4291 20.75 63.65 20.75H63.85C64.0709 20.75 64.25 20.5709 64.25 20.35V19.65C64.25 19.4291 64.0709 19.25 63.85 19.25Z" fill="#FFFFFF" stroke="#FFFFFF" stroke-width="0.5"/>
<path d="M65.85 18.25H65.65C65.4291 18.25 65.25 18.4291 65.25 18.65V21.35C65.25 21.5709 65.4291 21.75 65.65 21.75H65.85C66.0709 21.75 66.25 21.5709 66.25 21.35V18.65C66.25 18.4291 66.0709 18.25 65.85 18.25Z" fill="#FFFFFF" stroke="#FFFFFF" stroke-width="0.5"/>
<path d="M67.85 17.25H67.65C67.4291 17.25 67.25 17.4291 67.25 17.65V22.35C67.25 22.5709 67.4291 22.75 67.65 22.75H67.85C68.0709 22.75 68.25 22.5709 68.25 22.35V17.65C68.25 17.4291 68.0709 17.25 67.85 17.25Z" fill="#FFFFFF" stroke="#FFFFFF" stroke-width="0.5"/>
<path d="M69.85 17.25H69.65C69.4291 17.25 69.25 17.4291 69.25 17.65V22.35C69.25 22.5709 69.4291 22.75 69.65 22.75H69.85C70.0709 22.75 70.25 22.5709 70.25 22.35V17.65C70.25 17.4291 70.0709 17.25 69.85 17.25Z" fill="#FFFFFF" stroke="#FFFFFF" stroke-width="0.5"/>
<path d="M71.85 18.25H71.65C71.4291 18.25 71.25 18.4291 71.25 18.65V21.35C71.25 21.5709 71.4291 21.75 71.65 21.75H71.85C72.0709 21.75 72.25 21.5709 72.25 21.35V18.65C72.25 18.4291 72.0709 18.25 71.85 18.25Z" fill="#FFFFFF" stroke="#FFFFFF" stroke-width="0.5"/>
<path d="M73.85 19.25H73.65C73.4291 19.25 73.25 19.4291 73.25 19.65V20.35C73.25 20.5709 73.4291 20.75 73.65 20.75H73.85C74.0709 20.75 74.25 20.5709 74.25 20.35V19.65C74.25 19.4291 74.0709 19.25 73.85 19.25Z" fill="#FFFFFF" stroke="#FFFFFF" stroke-width="0.5"/>
</g>
<defs>
<clipPath id="clip0_85_138">
<rect width="78" height="28" fill="white"/>
</clipPath>
</defs>
</svg>
