<?xml version="1.0" encoding="UTF-8"?>
<svg width="103px" height="28px" viewBox="0 0 103 28" version="1.1" xmlns="http://www.w3.org/2000/svg" xmlns:xlink="http://www.w3.org/1999/xlink">
    <!-- Generator: Sketch 55.2 (78181) - https://sketchapp.com -->
    <title>Group 22</title>
    <desc>Created with Sketch.</desc>
    <defs>
        <linearGradient x1="50%" y1="0%" x2="50%" y2="100%" id="linearGradient-1">
            <stop stop-color="#F452FF" offset="0%"></stop>
            <stop stop-color="#832BC1" offset="100%"></stop>
        </linearGradient>
    </defs>
    <g id="Page-1" stroke="none" stroke-width="1" fill="none" fill-rule="evenodd">
        <g id="Features" transform="translate(-297.000000, -11056.000000)">
            <g id="Group-22" transform="translate(297.000000, 11056.000000)">
                <path d="M59.9513382,12.411306 C55.4374272,9.73127306 47.9918319,9.48485247 43.6827643,10.7923528 C42.9906446,11.0023286 42.2588941,10.6118004 42.0492014,9.9200172 C41.8395087,9.22773247 42.229798,8.49666241 42.9222521,8.28635229 C47.8687587,6.78525966 56.0917553,7.07514658 61.2882544,10.159082 C61.9106437,10.5285457 62.1148182,11.332171 61.745933,11.9534051 C61.3767133,12.5756421 60.5722225,12.7807697 59.9513382,12.411306 Z M59.8035165,16.3807841 C59.4868036,16.8945225 58.8149175,17.0556823 58.3017223,16.7402171 C54.5384576,14.4276417 48.8000016,13.7575917 44.3477944,15.1087255 C43.7703871,15.2830923 43.1607064,14.9577636 42.9852936,14.3815005 C42.8113858,13.8044016 43.1369613,13.1958731 43.7133654,13.020336 C48.7993327,11.4772817 55.1220521,12.224568 59.44433,14.880193 C59.9575253,15.1961597 60.1190589,15.8682159 59.8035165,16.3807841 Z M58.0900229,20.1929475 C57.8383583,20.6055431 57.3010835,20.7347719 56.8898918,20.4833359 C53.6015293,18.4740217 49.4625234,18.0203002 44.5880882,19.1333723 C44.1183699,19.2410351 43.6501566,18.9468015 43.5429692,18.4771981 C43.4354473,18.0077618 43.7287495,17.539663 44.1994711,17.4325018 C49.5337587,16.2134387 54.1093735,16.7380438 57.8003996,18.9929427 C58.2119256,19.2442115 58.3415204,19.7816892 58.0900229,20.1929475 Z M37.6643836,13.9998328 C37.6643836,21.7324911 43.9340945,28 51.6678082,28 C59.4018564,28 65.6712329,21.7324911 65.6712329,13.9998328 C65.6712329,6.26801046 59.4018564,0 51.6678082,0 C43.9340945,0 37.6643836,6.26801046 37.6643836,13.9998328 Z" id="Spotify_Icon_RGB_Green" fill="#1ED760"></path>
                <g id="XMLID_632_-Copy-2">
                    <path d="M27.44608,24.2687438 C27.1739047,24.9600922 26.5458765,25.9335214 25.6552426,26.6191948 C25.1410472,27.0152208 24.5271508,27.3937766 23.6839194,27.6435878 C22.7850512,27.9099789 21.6778788,28 20.2998665,28 L7.70002225,28 C6.32212119,28 5.21494881,27.9099789 4.31596935,27.6435878 C3.47273797,27.3937766 2.85895276,27.0152208 2.34464615,26.6191948 C1.45412348,25.9334102 0.825983977,24.9600922 0.553808737,24.2687438 C0.0055636803,22.8758097 0,21.2953781 0,20.3000278 L0,20.3000278 L0,7.69997218 L0,7.69997218 C0,6.70462187 0.0055636803,5.12419028 0.553808737,3.73125621 C0.825983977,3.0399078 1.45401221,2.06647856 2.34464615,1.38080515 C2.85884148,0.984779239 3.47273797,0.606223423 4.31596935,0.356412193 C5.21483754,0.0900210627 6.32200992,0 7.70002225,0 L7.70002225,0 L20.2999777,0 L20.2999777,0 C21.6778788,0 22.7850512,0.0900210627 23.6840306,0.356412193 C24.527262,0.606223423 25.1410472,0.984890514 25.6553539,1.38080515 C26.5458765,2.06658983 27.174016,3.0399078 27.4461913,3.73125621 C27.9944363,5.12419028 28,6.70462187 28,7.69997218 L28,20.3000278 C28,21.2952669 27.994325,22.8756984 27.44608,24.2687438 Z" id="XMLID_662_" fill="url(#linearGradient-1)"></path>
                    <path d="M27.44608,24.2687438 C27.1739047,24.9600922 26.5458765,25.9335214 25.6552426,26.6191948 C25.1410472,27.0152208 24.5271508,27.3937766 23.6839194,27.6435878 C22.7850512,27.9099789 21.6778788,28 20.2998665,28 L7.70002225,28 C6.32212119,28 5.21494881,27.9099789 4.31596935,27.6435878 C3.47273797,27.3937766 2.85895276,27.0152208 2.34464615,26.6191948 C1.45412348,25.9334102 0.825983977,24.9600922 0.553808737,24.2687438 C0.0055636803,22.8758097 0,21.2953781 0,20.3000278 L0,20.3000278 L0,7.69997218 L0,7.69997218 C0,6.70462187 0.0055636803,5.12419028 0.553808737,3.73125621 C0.825983977,3.0399078 1.45401221,2.06647856 2.34464615,1.38080515 C2.85884148,0.984779239 3.47273797,0.606223423 4.31596935,0.356412193 C5.21483754,0.0900210627 6.32200992,0 7.70002225,0 L7.70002225,0 L20.2999777,0 L20.2999777,0 C21.6778788,0 22.7850512,0.0900210627 23.6840306,0.356412193 C24.527262,0.606223423 25.1410472,0.984890514 25.6553539,1.38080515 C26.5458765,2.06658983 27.174016,3.0399078 27.4461913,3.73125621 C27.9944363,5.12419028 28,6.70462187 28,7.69997218 L28,20.3000278 C28,21.2952669 27.994325,22.8756984 27.44608,24.2687438 Z" id="XMLID_660_"></path>
                    <g id="XMLID_648_" transform="translate(3.843137, 2.745098)" fill="#FFFFFF" fill-rule="nonzero">
                        <path d="M12.3272715,13.3725118 C11.9011346,12.9241165 11.1526867,12.6366663 10.2691525,12.6366663 C9.38550545,12.6366663 8.63705752,12.9241165 8.2109207,13.3725118 C7.98859826,13.6065012 7.87100436,13.8463431 7.83398824,14.188042 C7.76221307,14.8497176 7.80250196,15.4194408 7.88025839,16.3303 C7.95429063,17.198278 8.09490675,18.3557322 8.27840741,19.5345706 C8.40897952,20.373511 8.51506231,20.8262957 8.61166536,21.1505494 C8.76830675,21.6760408 9.35368061,22.1355784 10.2691525,22.1355784 C11.1845115,22.1355784 11.7698854,21.6759282 11.9265268,21.1505494 C12.0231298,20.8262957 12.1292126,20.373511 12.2597847,19.5345706 C12.4432854,18.3557322 12.5839015,17.198278 12.6579338,16.3303 C12.7356902,15.4193282 12.7759791,14.8496051 12.7042039,14.188042 C12.6671878,13.8464557 12.5495939,13.6065012 12.3272715,13.3725118 Z M7.94729368,9.38006039 C7.94729368,10.6600804 8.98780784,11.6977824 10.2712967,11.6977824 C11.5548985,11.6977824 12.5954126,10.6600804 12.5954126,9.38006039 C12.5954126,8.09992784 11.5548985,7.06222588 10.2712967,7.06222588 C8.98780784,7.06222588 7.94729368,8.09992784 7.94729368,9.38006039 Z M10.242519,0.233160073 C4.80713028,0.248620784 0.353345969,4.64624863 0.286084967,10.0666094 C0.231463617,14.4574843 3.04198039,18.2134702 6.9664793,19.5901698 C7.0617281,19.6235969 7.15844401,19.5447 7.14343442,19.4450941 C7.09197298,19.1041831 7.04344575,18.7615839 6.99886841,18.4247247 C6.98306885,18.3056478 6.90700523,18.2030031 6.79674684,18.1549447 C3.69484096,16.8034561 1.52883355,13.7009298 1.56359259,10.1071271 C1.60918562,5.39087294 5.47082484,1.54597333 10.1998601,1.50781922 C15.0344139,1.46887725 18.9799037,5.37973059 18.9799037,10.1923267 C18.9799037,13.7501137 16.823376,16.8145984 13.7456209,18.1552824 C13.6353625,18.2033408 13.5597503,18.3063231 13.5440636,18.4252875 C13.4994863,18.7620341 13.450959,19.1045208 13.3996105,19.4450941 C13.384488,19.5447 13.4812039,19.6235969 13.5764527,19.5902824 C17.4634841,18.226751 20.257637,14.529178 20.257637,10.1924392 C20.2574113,4.69115569 15.7620967,0.217444706 10.242519,0.233160073 Z M10.0620654,4.80212902 C13.143319,4.68316471 15.6879516,7.14843843 15.6879516,10.1953655 C15.6879516,11.7449404 15.0296741,13.1439247 13.9775359,14.1291788 C13.8882684,14.2126902 13.8403054,14.3313169 13.8471895,14.4532075 C13.8681804,14.8238314 13.8605063,15.1839882 13.8357913,15.5907404 C13.8291329,15.6991251 13.9510153,15.7683427 14.0409599,15.7072286 C15.8053198,14.5047549 16.9657978,12.4828118 16.9657978,10.1953655 C16.9657978,6.4290251 13.8201046,3.38153529 10.0113939,3.52874941 C6.47184009,3.66560902 3.63209412,6.57601412 3.5867268,10.1084776 C3.55693333,12.4317145 4.72452113,14.4898984 6.51156471,15.7074537 C6.60128366,15.7685678 6.72282745,15.6992376 6.71616906,15.5909655 C6.69134118,15.1839882 6.68377996,14.8238314 6.70465795,14.4532075 C6.71154205,14.3314294 6.66369194,14.2128027 6.57465011,14.1294039 C5.48967146,13.1135365 4.82338126,11.6577149 4.86581438,10.0505149 C4.94052375,7.22215804 7.22705926,4.91163922 10.0620654,4.80212902 Z" id="Shape"></path>
                    </g>
                </g>
                <g id="Podcast_icon_final-Copy-2" transform="translate(75.000000, 0.000000)">
                    <g id="_logo_Podcasts_192px">
                        <polygon id="Shape" fill="#FAB908" points="12.25 8.90909091 12.25 13.1520455 12.25 14.8479545 12.25 19.0909091 15.75 19.0909091 15.75 14.8479545 15.75 13.1520455 15.75 8.90909091"></polygon>
                        <circle id="Oval" fill="#0066D9" cx="1.75" cy="13.0454545" r="1.75"></circle>
                        <circle id="Oval" fill="#0066D9" cx="1.75" cy="14.9545455" r="1.75"></circle>
                        <rect id="Rectangle-path" fill="#0066D9" x="0" y="13.0454545" width="3.5" height="1.90909091"></rect>
                        <circle id="Oval" fill="#4285F4" cx="26.25" cy="14.9545455" r="1.75"></circle>
                        <circle id="Oval" fill="#4285F4" cx="26.25" cy="13.0454545" r="1.75"></circle>
                        <rect id="Rectangle-path" fill="#4285F4" transform="translate(26.250000, 14.000000) rotate(180.000000) translate(-26.250000, -14.000000) " x="24.5" y="13.0454545" width="3.5" height="1.90909091"></rect>
                        <circle id="Oval" fill="#EA4335" cx="7.79545455" cy="18.7727273" r="1.75"></circle>
                        <circle id="Oval" fill="#EA4335" cx="7.79545455" cy="20.6818182" r="1.75"></circle>
                        <rect id="Rectangle-path" fill="#EA4335" x="6.04545455" y="18.7727273" width="3.5" height="1.90909091"></rect>
                        <circle id="Oval" fill="#EA4335" cx="7.79545455" cy="7.31818182" r="1.75"></circle>
                        <circle id="Oval" fill="#EA4335" cx="7.79545455" cy="13.5227273" r="1.75"></circle>
                        <rect id="Rectangle-path" fill="#EA4335" x="6.04545455" y="7.31818182" width="3.5" height="6.24431818"></rect>
                        <circle id="Oval" fill="#34A853" cx="20.2045455" cy="9.22727273" r="1.75"></circle>
                        <circle id="Oval" fill="#34A853" cx="20.2045455" cy="7.31818182" r="1.75"></circle>
                        <rect id="Rectangle-path" fill="#34A853" transform="translate(20.204545, 8.272727) rotate(180.000000) translate(-20.204545, -8.272727) " x="18.4545455" y="7.31818182" width="3.5" height="1.90909091"></rect>
                        <circle id="Oval" fill="#FAB908" cx="14" cy="3.65909091" r="1.75"></circle>
                        <circle id="Oval" fill="#FAB908" cx="14" cy="1.75" r="1.75"></circle>
                        <rect id="Rectangle-path" fill="#FAB908" transform="translate(14.000000, 2.704545) rotate(180.000000) translate(-14.000000, -2.704545) " x="12.25" y="1.75" width="3.5" height="1.90909091"></rect>
                        <circle id="Oval" fill="#FAB908" cx="14" cy="26.25" r="1.75"></circle>
                        <circle id="Oval" fill="#FAB908" cx="14" cy="24.3409091" r="1.75"></circle>
                        <rect id="Rectangle-path" fill="#FAB908" transform="translate(14.000000, 25.295455) rotate(180.000000) translate(-14.000000, -25.295455) " x="12.25" y="24.3409091" width="3.5" height="1.90909091"></rect>
                        <circle id="Oval" fill="#34A853" cx="20.2045455" cy="20.6818182" r="1.75"></circle>
                        <circle id="Oval" fill="#34A853" cx="20.2045455" cy="14.4772727" r="1.75"></circle>
                        <rect id="Rectangle-path" fill="#34A853" transform="translate(20.204545, 17.579545) rotate(180.000000) translate(-20.204545, -17.579545) " x="18.4545455" y="14.4772727" width="3.5" height="6.20454545"></rect>
                        <circle id="Oval" fill="#FAB908" cx="14" cy="8.90909091" r="1.75"></circle>
                        <circle id="Oval" fill="#FAB908" cx="14" cy="19.0909091" r="1.75"></circle>
                    </g>
                </g>
            </g>
        </g>
    </g>
</svg>