<svg width="74" height="30" viewBox="0 0 74 30" fill="none" xmlns="http://www.w3.org/2000/svg">
<g clip-path="url(#clip0_85_129)">
<path d="M25.9132 12.3157C27.7147 19.1174 23.7249 26.1087 17.002 27.9312C10.279 29.7537 3.36856 25.7173 1.56708 18.9156C-0.234285 12.1139 3.75544 5.12257 10.4784 3.30001C14.7568 2.14027 19.111 3.35317 22.1762 6.1415" stroke="#FFFFFF" stroke-width="2.268" stroke-linecap="round"/>
<path fill-rule="evenodd" clip-rule="evenodd" d="M10.6282 11.0001C10.9646 11.0001 11.2682 11.058 11.539 11.1737C11.8098 11.2894 12.041 11.4497 12.2328 11.6547C12.4245 11.8597 12.5717 12.1003 12.6743 12.3763C12.7769 12.6524 12.8282 12.9507 12.8282 13.2714C12.8282 13.5515 12.8021 13.7982 12.75 14.0113C12.6978 14.2244 12.6222 14.4101 12.5229 14.5685C12.4237 14.7268 12.3026 14.8607 12.1596 14.9704C12.0166 15.08 11.8543 15.1713 11.6727 15.2444C12.11 15.4108 12.4363 15.6645 12.6516 16.0055C12.8669 16.3465 12.9745 16.7748 12.9745 17.2904C12.9745 17.7288 12.9072 18.1165 12.7727 18.4534C12.6381 18.7904 12.4565 19.0735 12.2277 19.3029C11.999 19.5323 11.7341 19.7058 11.433 19.8235C11.1319 19.9413 10.8132 20.0001 10.4768 20.0001C10.1101 20.0001 9.79058 19.9494 9.5181 19.8479C9.24562 19.7464 9.00847 19.5962 8.80663 19.3973C8.6048 19.1984 8.43324 18.9548 8.29195 18.6666C8.15067 18.3783 8.02957 18.0455 7.92865 17.6679L8.47865 17.3939C8.57284 17.3452 8.66871 17.3208 8.76626 17.3208C8.85373 17.3208 8.93194 17.3432 9.0009 17.3878C9.06986 17.4325 9.12284 17.4974 9.15984 17.5827C9.22039 17.7248 9.28683 17.8648 9.35915 18.0028C9.43148 18.1409 9.5181 18.2637 9.61902 18.3712C9.71994 18.4788 9.83851 18.5661 9.97475 18.6331C10.111 18.7001 10.2733 18.7335 10.4617 18.7335C10.6736 18.7335 10.8586 18.6919 11.0167 18.6087C11.1748 18.5255 11.3069 18.4169 11.4128 18.2829C11.5188 18.149 11.5978 17.9998 11.65 17.8354C11.7021 17.671 11.7282 17.5055 11.7282 17.3391C11.7282 17.128 11.7097 16.9362 11.6727 16.7637C11.6357 16.5911 11.5583 16.444 11.4406 16.3222C11.3228 16.2004 11.1538 16.105 10.9335 16.036C10.7131 15.967 10.4179 15.9325 10.0479 15.9325V14.8607C10.354 14.8567 10.608 14.8222 10.8098 14.7572C11.0117 14.6923 11.1723 14.6019 11.2917 14.4863C11.4111 14.3706 11.4944 14.2315 11.5415 14.0691C11.5886 13.9068 11.6121 13.7281 11.6121 13.5333C11.6121 13.1151 11.5179 12.7995 11.3296 12.5864C11.1412 12.3733 10.8839 12.2667 10.5575 12.2667C10.2615 12.2667 10.016 12.3611 9.82085 12.5499C9.62574 12.7386 9.48951 12.9812 9.41214 13.2775C9.37177 13.4318 9.31627 13.5424 9.24562 13.6094C9.17498 13.6764 9.08247 13.7099 8.9681 13.7099C8.91428 13.7099 8.85709 13.7038 8.79654 13.6916L8.14058 13.5515C8.19104 13.1293 8.28859 12.7589 8.43324 12.4402C8.57789 12.1216 8.7587 11.8557 8.97567 11.6425C9.19264 11.4294 9.44157 11.2691 9.72246 11.1615C10.0033 11.0539 10.3053 11.0001 10.6282 11.0001ZM18.9286 15.5001C18.9286 16.2674 18.8605 16.9342 18.7243 17.5005C18.5881 18.0668 18.3997 18.5346 18.1592 18.904C17.9186 19.2735 17.6344 19.5485 17.3064 19.7291C16.9784 19.9098 16.6244 20.0001 16.2442 20.0001C15.8641 20.0001 15.5118 19.9098 15.1871 19.7291C14.8625 19.5485 14.5808 19.2735 14.342 18.904C14.1031 18.5346 13.9164 18.0668 13.7819 17.5005C13.6473 16.9342 13.58 16.2674 13.58 15.5001C13.58 14.7288 13.6473 14.061 13.7819 13.4967C13.9164 12.9325 14.1031 12.4656 14.342 12.0962C14.5808 11.7268 14.8625 11.4517 15.1871 11.2711C15.5118 11.0904 15.8641 11.0001 16.2442 11.0001C16.6244 11.0001 16.9784 11.0904 17.3064 11.2711C17.6344 11.4517 17.9186 11.7268 18.1592 12.0962C18.3997 12.4656 18.5881 12.9325 18.7243 13.4967C18.8605 14.061 18.9286 14.7288 18.9286 15.5001ZM17.642 15.5001C17.642 14.8628 17.6033 14.335 17.5259 13.9169C17.4485 13.4988 17.3451 13.1659 17.2156 12.9183C17.0861 12.6706 16.9372 12.4971 16.769 12.3976C16.6008 12.2982 16.4259 12.2484 16.2442 12.2484C16.066 12.2484 15.8936 12.2982 15.727 12.3976C15.5605 12.4971 15.4134 12.6706 15.2855 12.9183C15.1577 13.1659 15.0559 13.4988 14.9803 13.9169C14.9046 14.335 14.8667 14.8628 14.8667 15.5001C14.8667 16.1375 14.9046 16.6652 14.9803 17.0833C15.0559 17.5015 15.1577 17.8344 15.2855 18.082C15.4134 18.3296 15.5605 18.5032 15.727 18.6026C15.8936 18.7021 16.066 18.7518 16.2442 18.7518C16.4259 18.7518 16.6008 18.7021 16.769 18.6026C16.9372 18.5032 17.0861 18.3296 17.2156 18.082C17.3451 17.8344 17.4485 17.5015 17.5259 17.0833C17.6033 16.6652 17.642 16.1375 17.642 15.5001Z" fill="#FFFFFF"/>
<path d="M21.8243 1.41675C22.8894 4.87423 23.3766 6.677 23.2857 6.82505C23.1949 6.97307 21.4759 7.17768 18.1287 7.4389" stroke="#FFFFFF" stroke-width="2.268" stroke-linecap="round"/>
<path fill-rule="evenodd" clip-rule="evenodd" d="M49.7643 19.4638H51.7142V14.4226C51.7142 14.1757 51.7211 13.9174 51.7351 13.6476L50.586 14.5872C50.5117 14.6467 50.4375 14.689 50.3632 14.7141C50.2889 14.7393 50.217 14.7518 50.1473 14.7518C50.0266 14.7518 49.9187 14.7255 49.8235 14.673C49.7283 14.6204 49.6575 14.5644 49.6111 14.5049L48.9286 13.6133L52.0902 11.0001H53.8729V19.4638H55.5442V21.0001H49.7643V19.4638ZM58.6501 17.3239L56.3242 13.8876H58.3994C58.5526 13.8876 58.6652 13.9071 58.7371 13.9459C58.8091 13.9848 58.8729 14.05 58.9286 14.1414L60.2169 16.247C60.2448 16.1647 60.2796 16.0847 60.3214 16.007C60.3632 15.9292 60.4096 15.8469 60.4607 15.7601L61.3799 14.1757C61.4403 14.0705 61.5076 13.9962 61.5819 13.9528C61.6561 13.9094 61.7467 13.8876 61.8534 13.8876H63.8312L61.5052 17.2278L63.9286 21.0001H61.8534C61.7002 21.0001 61.5772 20.9635 61.4844 20.8904C61.3915 20.8172 61.3149 20.7303 61.2546 20.6298L59.9663 18.4487C59.943 18.5264 59.9152 18.5996 59.8827 18.6682C59.8502 18.7367 59.8154 18.8008 59.7782 18.8602L58.7197 20.6298C58.664 20.7258 58.5897 20.8115 58.4969 20.887C58.404 20.9624 58.288 21.0001 58.1487 21.0001H56.2267L58.6501 17.3239Z" fill="#FFFFFF"/>
<path d="M67.2786 2.05005H44.5786C41.4858 2.05005 38.9786 4.55725 38.9786 7.65005V22.35C38.9786 25.4428 41.4858 27.9501 44.5786 27.9501H67.2786C70.3714 27.9501 72.8786 25.4428 72.8786 22.35V7.65005C72.8786 4.55725 70.3714 2.05005 67.2786 2.05005Z" stroke="#FFFFFF" stroke-width="2.1"/>
</g>
<defs>
<clipPath id="clip0_85_129">
<rect width="74" height="30" fill="white"/>
</clipPath>
</defs>
</svg>
