<?xml version="1.0" encoding="UTF-8"?>
<svg width="28px" height="28px" viewBox="0 0 28 28" version="1.1" xmlns="http://www.w3.org/2000/svg" xmlns:xlink="http://www.w3.org/1999/xlink">
    <!-- Generator: Sketch 55.2 (78181) - https://sketchapp.com -->
    <title>Shape 2</title>
    <desc>Created with Sketch.</desc>
    <g id="Page-1" stroke="none" stroke-width="1" fill="none" fill-rule="evenodd">
        <g id="Features" transform="translate(-947.000000, -11056.000000)" fill="#8B61B5" fill-rule="nonzero">
            <g id="Shape-2" transform="translate(947.276119, 11056.000000)">
                <path d="M3.03869307,0 L24.6851881,0 C25.521196,0 26.276004,0.341264 26.8391089,0.8925 C27.385996,1.460144 27.7227723,2.223592 27.7227723,3.06796 L27.7227723,24.93204 C27.7227723,25.776408 27.3848871,26.538764 26.8391089,27.1075 C26.2770851,27.659856 25.521196,28 24.6851881,28 L3.03758416,28 C2.20157624,28 1.44676832,27.658736 0.883663366,27.1075 C0.336776238,26.539856 1.77635684e-15,25.776408 1.77635684e-15,24.93204 L1.77635684e-15,3.06796 C1.77635684e-15,2.223592 0.337885149,1.461236 0.883663366,0.8925 C1.44568713,0.340144 2.20157624,0 3.03758416,0 L3.03869307,0 Z M15.8150099,18.22856 L17.9364396,20.387612 C18.2743248,20.728876 18.2743248,21.280112 17.9364396,21.621348 C17.5985545,21.962584 17.0527762,21.962612 16.7149188,21.621348 L14.5934891,19.462296 L12.7774257,21.29652 C12.4395406,21.637784 11.8937624,21.637784 11.555905,21.29652 C11.4270384,21.1663648 11.3469002,21.0208936 11.3144147,20.857928 L9.56225228,14.218848 C9.43338574,13.763848 9.70736436,13.277124 10.1730127,13.163388 C10.3332836,13.1141696 10.4784067,13.1141696 10.6235077,13.163388 L17.228181,14.948388 C17.6938404,15.062138 17.9678246,15.548848 17.8389414,16.019164 C17.7902103,16.1657272 17.7263176,16.2947876 17.6136939,16.408532 L15.813876,18.226348 L15.8150099,18.22856 Z M13.4845782,15.744652 L11.6197782,15.24152 L12.6160792,18.991 L13.9664832,17.611776 L13.982727,17.611776 L15.333131,16.247868 L13.4845782,15.744652 Z M8.66331089,3.505572 C9.14521584,3.505572 9.53072871,3.89494 9.53072871,4.381664 C9.53072871,4.85198 9.14521584,5.24244 8.66331089,5.24244 C8.18140594,5.24244 7.79589307,4.853072 7.79589307,4.381664 C7.79589307,3.89494 8.18140594,3.505572 8.66331089,3.505572 Z M11.2666455,3.505572 L21.664903,3.505572 C22.1305624,3.505572 22.5323208,3.89494 22.5323208,4.381664 C22.5323208,4.85198 22.1305624,5.24244 21.664903,5.24244 L11.2666455,5.24244 C10.7847406,5.24244 10.3992277,4.853072 10.3992277,4.381664 C10.3992277,3.89494 10.7847406,3.505572 11.2666455,3.505572 Z M6.06003168,3.505572 C6.54193663,3.505572 6.9274495,3.89494 6.9274495,4.381664 C6.9274495,4.85198 6.54193663,5.24244 6.06003168,5.24244 C5.59437228,5.24244 5.19261386,4.853072 5.19261386,4.381664 C5.19261386,3.89494 5.59437228,3.505572 6.06003168,3.505572 Z M25.9879921,8.749132 L1.73694257,8.749132 L1.73694257,24.932292 C1.73694257,25.305252 1.88205465,25.630108 2.12245545,25.857608 C2.34770297,26.1015132 2.66934257,26.246976 3.0386099,26.246976 L24.6862139,26.246976 C25.0554812,26.246976 25.3771208,26.1004128 25.6023683,25.857608 C25.8438586,25.630108 25.9879921,25.305252 25.9879921,24.932292 L25.9879921,8.749132 Z M3.19904158,1.753612 C2.79728317,1.753612 2.42801584,1.9154856 2.17027723,2.192204 C1.8973798,2.4514224 1.73602772,2.82548 1.73602772,3.231256 L1.73602772,6.996976 L25.9870772,6.996976 L25.9870772,3.231256 C25.9870772,2.82548 25.8268063,2.45252 25.5528277,2.192204 C25.2961758,1.9165776 24.9258218,1.753612 24.5240634,1.753612 L3.19804356,1.753612 L3.19904158,1.753612 Z" id="Shape"></path>
            </g>
        </g>
    </g>
</svg>