<svg width="57" height="28" viewBox="0 0 57 28" fill="none" xmlns="http://www.w3.org/2000/svg">
<g clip-path="url(#clip0_85_171)">
<path fill-rule="evenodd" clip-rule="evenodd" d="M44.1389 9.32031L44.1931 10.1854L43.2899 10.0794C40.0023 9.6734 37.1301 8.29637 34.6915 5.98367L33.4993 4.83614L33.1922 5.68355C32.5419 7.57255 32.9574 9.56747 34.3122 10.9092C35.0347 11.6507 34.8722 11.7566 33.6257 11.3152C33.1922 11.174 32.8129 11.0681 32.7767 11.121C32.6503 11.2446 33.0838 12.8512 33.427 13.4867C33.8967 14.3694 34.8541 15.2345 35.9018 15.7464L36.7869 16.1525L35.7392 16.1701C34.7276 16.1701 34.6915 16.1878 34.7999 16.5585C35.1612 17.7061 36.5882 18.9242 38.1778 19.4538L39.2978 19.8246L38.3224 20.3895C36.8772 21.2016 35.1792 21.6606 33.4812 21.6959C32.6684 21.7136 32 21.7842 32 21.8371C32 22.0137 34.2038 23.0023 35.4863 23.3907C39.3339 24.5382 43.9041 24.0439 47.3362 22.0843C49.7749 20.6896 52.2135 17.9179 53.3515 15.2345C53.9657 13.8045 54.5798 11.1917 54.5798 9.93821C54.5798 9.12612 54.634 9.02019 55.6456 8.04921C56.2417 7.48427 56.8017 6.86638 56.9101 6.68984C57.0907 6.35441 57.0727 6.35441 56.1514 6.65453C54.616 7.18415 54.3992 7.11354 55.1579 6.3191C55.7179 5.75416 56.3862 4.73022 56.3862 4.4301C56.3862 4.37713 56.1153 4.4654 55.8082 4.62429C55.483 4.80083 54.7605 5.06565 54.2186 5.22454L53.2431 5.52466L52.358 4.94207C51.8703 4.62429 51.1838 4.27121 50.8226 4.16528C49.9013 3.91812 48.4923 3.95343 47.6614 4.2359C45.4034 5.03034 43.9764 7.07823 44.1389 9.32031Z" fill="#FFFFFF"/>
<path fill-rule="evenodd" clip-rule="evenodd" d="M9.30939 28V13.9984H13.4511L14 9.17332H9.30939L9.31643 6.75834C9.31643 5.49989 9.44455 4.82559 11.3814 4.82559H13.9707V0H9.82835C4.85275 0 3.10147 2.34066 3.10147 6.27693V9.17386H0V13.9989H3.10147V28H9.30939Z" fill="#FFFFFF"/>
</g>
<defs>
<clipPath id="clip0_85_171">
<rect width="57" height="28" fill="white"/>
</clipPath>
</defs>
</svg>
