<?xml version="1.0" encoding="UTF-8"?>
<svg width="161px" height="40px" viewBox="0 0 161 40" version="1.1" xmlns="http://www.w3.org/2000/svg" xmlns:xlink="http://www.w3.org/1999/xlink">
    <title>Group 57</title>
    <g id="Page-1" stroke="none" stroke-width="1" fill="none" fill-rule="evenodd">
        <g id="Images" transform="translate(-626.000000, -5174.000000)">
            <g id="Group-57" transform="translate(626.000000, 5174.000000)">
                <rect id="Rectangle" fill="#000000" x="0" y="0" width="161" height="40" rx="7"></rect>
                <path d="M44.9633789,31 L44.9633789,26.9077148 L47.5366211,26.9077148 C49.8857422,26.9077148 51.5375977,25.2973633 51.5375977,22.956543 C51.5375977,20.6240234 49.9189453,19.0219727 47.5947266,19.0219727 L43.1040039,19.0219727 L43.1040039,31 L44.9633789,31 Z M47.0966797,25.347168 L44.9633789,25.347168 L44.9633789,20.5908203 L47.1049805,20.5908203 C48.715332,20.5908203 49.6367188,21.4541016 49.6367188,22.9648438 C49.6367188,24.4755859 48.715332,25.347168 47.0966797,25.347168 Z M56.7006836,31.1660156 C59.1992188,31.1660156 60.8427734,29.4477539 60.8427734,26.6337891 C60.8427734,23.828125 59.190918,22.1098633 56.7006836,22.1098633 C54.2104492,22.1098633 52.5585938,23.828125 52.5585938,26.6337891 C52.5585938,29.4477539 54.2021484,31.1660156 56.7006836,31.1660156 Z M56.7006836,29.6884766 C55.2978516,29.6884766 54.3847656,28.5761719 54.3847656,26.6337891 C54.3847656,24.699707 55.2978516,23.5874023 56.7006836,23.5874023 C58.1035156,23.5874023 59.0166016,24.699707 59.0166016,26.6337891 C59.0166016,28.5761719 58.1118164,29.6884766 56.7006836,29.6884766 Z M65.5078125,31.1494141 C66.777832,31.1494141 67.7739258,30.5102539 68.2885742,29.5141602 L68.3217773,29.5141602 L68.3217773,31 L70.0649414,31 L70.0649414,19.0219727 L68.2636719,19.0219727 L68.2636719,23.7202148 L68.2304688,23.7202148 C67.7407227,22.7573242 66.7446289,22.1264648 65.4912109,22.1264648 C63.2998047,22.1264648 61.8388672,23.8779297 61.8388672,26.6337891 C61.8388672,29.3896484 63.2998047,31.1494141 65.5078125,31.1494141 Z M65.980957,29.6303711 C64.5615234,29.6303711 63.6733398,28.4765625 63.6733398,26.6337891 C63.6733398,24.7993164 64.5615234,23.637207 65.980957,23.637207 C67.3588867,23.637207 68.2802734,24.8242188 68.2802734,26.6337891 C68.2802734,28.4599609 67.3588867,29.6303711 65.980957,29.6303711 Z M75.6347656,31.1660156 C77.7348633,31.1660156 79.2207031,29.9042969 79.4116211,28.0449219 L77.6850586,28.0449219 C77.4775391,29.0576172 76.7553711,29.6635742 75.6513672,29.6635742 C74.2568359,29.6635742 73.3354492,28.5512695 73.3354492,26.6337891 C73.3354492,24.7578125 74.2485352,23.6040039 75.6347656,23.6040039 C76.8051758,23.6040039 77.5024414,24.3427734 77.6850586,25.2724609 L79.3950195,25.2724609 C79.2373047,23.5541992 77.8676758,22.1098633 75.6181641,22.1098633 C73.1362305,22.1098633 71.5092773,23.8613281 71.5092773,26.6337891 C71.5092773,29.4560547 73.1362305,31.1660156 75.6347656,31.1660156 Z M83.2382812,31.1494141 C84.3837891,31.1494141 85.487793,30.5351562 85.9941406,29.5639648 L86.0356445,29.5639648 L86.0356445,31 L87.7539062,31 L87.7539062,24.9819336 C87.7539062,23.2304688 86.4008789,22.1098633 84.2841797,22.1098633 C82.1259766,22.1098633 80.78125,23.2719727 80.6816406,24.8491211 L82.375,24.8491211 C82.5327148,24.0688477 83.1801758,23.5708008 84.2177734,23.5708008 C85.3134766,23.5708008 85.9692383,24.1518555 85.9692383,25.1230469 L85.9692383,25.7954102 L83.5786133,25.9365234 C81.503418,26.0527344 80.3330078,26.9907227 80.3330078,28.5180664 C80.3330078,30.0869141 81.5283203,31.1494141 83.2382812,31.1494141 Z M83.7363281,29.7299805 C82.7734375,29.7299805 82.1425781,29.2319336 82.1425781,28.4682617 C82.1425781,27.7211914 82.7485352,27.2480469 83.8193359,27.1733398 L85.9692383,27.0405273 L85.9692383,27.7294922 C85.9692383,28.8666992 84.9897461,29.7299805 83.7363281,29.7299805 Z M92.7675781,31.1660156 C94.8261719,31.1660156 96.3120117,30.0703125 96.3120117,28.4765625 C96.3120117,27.2148438 95.6313477,26.5175781 93.8466797,26.1025391 L92.4272461,25.7788086 C91.480957,25.5629883 91.0825195,25.1894531 91.0825195,24.6416016 C91.0825195,23.9443359 91.7299805,23.4711914 92.7011719,23.4711914 C93.7055664,23.4711914 94.328125,24.0024414 94.4277344,24.8491211 L96.112793,24.8491211 C96.0546875,23.2387695 94.7348633,22.1098633 92.7011719,22.1098633 C90.6923828,22.1098633 89.3310547,23.1806641 89.3310547,24.7412109 C89.3310547,26.0112305 90.152832,26.8081055 91.8129883,27.1899414 L93.2324219,27.5219727 C94.1870117,27.737793 94.5107422,28.0698242 94.5107422,28.6342773 C94.5107422,29.3481445 93.8466797,29.7963867 92.7675781,29.7963867 C91.671875,29.7963867 91.0493164,29.3481445 90.8833008,28.4350586 L89.1069336,28.4350586 C89.2729492,30.0952148 90.5844727,31.1660156 92.7675781,31.1660156 Z M100.678223,31.0581055 C101.07666,31.0581055 101.475098,31.0249023 101.674316,30.9750977 L101.674316,29.5556641 C101.558105,29.5805664 101.267578,29.597168 101.084961,29.597168 C100.354492,29.597168 100.022461,29.2568359 100.022461,28.5014648 L100.022461,23.6870117 L101.682617,23.6870117 L101.682617,22.2675781 L100.022461,22.2675781 L100.022461,20.2006836 L98.2211914,20.2006836 L98.2211914,22.2675781 L96.9511719,22.2675781 L96.9511719,23.6870117 L98.2211914,23.6870117 L98.2211914,28.7006836 C98.2211914,30.3857422 98.9101562,31.0581055 100.678223,31.0581055 Z M108.671875,31 L108.671875,19.0219727 L106.8125,19.0219727 L106.8125,31 L108.671875,31 Z M112.457031,31 L112.457031,25.9116211 C112.457031,24.5585938 113.270508,23.6621094 114.532227,23.6621094 C115.777344,23.6621094 116.391602,24.3842773 116.391602,25.6958008 L116.391602,31 L118.192871,31 L118.192871,25.347168 C118.192871,23.3466797 117.088867,22.1181641 115.163086,22.1181641 C113.818359,22.1181641 112.888672,22.7324219 112.415527,23.7285156 L112.374023,23.7285156 L112.374023,22.2675781 L110.664062,22.2675781 L110.664062,31 L112.457031,31 Z M123.198242,31.1494141 C124.468262,31.1494141 125.464355,30.5102539 125.979004,29.5141602 L126.012207,29.5141602 L126.012207,31 L127.755371,31 L127.755371,19.0219727 L125.954102,19.0219727 L125.954102,23.7202148 L125.920898,23.7202148 C125.431152,22.7573242 124.435059,22.1264648 123.181641,22.1264648 C120.990234,22.1264648 119.529297,23.8779297 119.529297,26.6337891 C119.529297,29.3896484 120.990234,31.1494141 123.198242,31.1494141 Z M123.671387,29.6303711 C122.251953,29.6303711 121.36377,28.4765625 121.36377,26.6337891 C121.36377,24.7993164 122.251953,23.637207 123.671387,23.637207 C125.049316,23.637207 125.970703,24.8242188 125.970703,26.6337891 C125.970703,28.4599609 125.049316,29.6303711 123.671387,29.6303711 Z M133.316895,31.1660156 C135.317383,31.1660156 136.828125,30.0288086 137.077148,28.4350586 L135.375488,28.4350586 C135.134766,29.1987305 134.379395,29.7133789 133.358398,29.7133789 C131.922363,29.7133789 131.009277,28.7089844 131.009277,27.1899414 L131.009277,27.0820312 L137.176758,27.0820312 L137.176758,26.4677734 C137.176758,23.8198242 135.666016,22.1098633 133.242188,22.1098633 C130.776855,22.1098633 129.199707,23.9360352 129.199707,26.675293 C129.199707,29.4311523 130.751953,31.1660156 133.316895,31.1660156 Z M135.383789,25.8286133 L131.017578,25.8286133 C131.108887,24.5087891 131.98877,23.5541992 133.242188,23.5541992 C134.495605,23.5541992 135.342285,24.4921875 135.383789,25.8286133 Z M139.85791,31 L141.791992,27.7875977 L141.833496,27.7875977 L143.759277,31 L145.734863,31 L142.904297,26.5839844 L145.768066,22.2675781 L143.79248,22.2675781 L141.908203,25.4301758 L141.875,25.4301758 L139.96582,22.2675781 L137.957031,22.2675781 L140.795898,26.6420898 L137.915527,31 L139.85791,31 Z" id="PodcastIndex" fill="#FFFFFF" fill-rule="nonzero"></path>
                <path d="M43,14.8958032 L43,9.10419682 L43.9101895,9.10419682 L43.9101895,14.1316932 L46.6680638,14.1316932 L46.6680638,14.8958032 L43,14.8958032 Z M48.0087195,9.99855282 C47.7265607,9.99855282 47.4808095,9.78147612 47.4808095,9.50361795 C47.4808095,9.22575977 47.7265607,9 48.0087195,9 C48.2999801,9 48.5366294,9.22575977 48.5366294,9.50361795 C48.5366294,9.78147612 48.2999801,9.99855282 48.0087195,9.99855282 Z M47.6082361,14.8958032 L47.6082361,10.7018813 L48.4274066,10.7018813 L48.4274066,14.8958032 L47.6082361,14.8958032 Z M49.3038656,14.3487699 L49.6952471,13.7756874 C49.9956097,14.0882779 50.578131,14.3748191 51.1697542,14.3748191 C51.7886831,14.3748191 52.1163513,14.1316932 52.1163513,13.7756874 C52.1163513,13.3589001 51.615747,13.2199711 51.0514295,13.0984081 C50.3050741,12.9334298 49.4312922,12.7424023 49.4312922,11.8393632 C49.4312922,11.170767 50.0320173,10.5976845 51.1060409,10.5976845 C51.8614982,10.5976845 52.4076119,10.8581766 52.7807896,11.1968162 L52.4167138,11.7438495 C52.1618608,11.4486252 51.6703584,11.2315485 51.1151428,11.2315485 C50.5599272,11.2315485 50.2140552,11.4399421 50.2140552,11.7785818 C50.2140552,12.1432706 50.6873537,12.2648336 51.2334674,12.3863965 C51.9980266,12.5513748 52.9082162,12.7510854 52.9082162,13.7149059 C52.9082162,14.4356006 52.2892873,15 51.1333466,15 C50.3960931,15 49.7498585,14.7829233 49.3038656,14.3487699 Z M55.1135519,15 C54.4218078,15 54.0668339,14.6266281 54.0668339,13.9667149 L54.0668339,11.3878437 L53.3386823,11.3878437 L53.3386823,10.7018813 L54.0668339,10.7018813 L54.0668339,9.55571635 L54.8860045,9.55571635 L54.8860045,10.7018813 L55.7779902,10.7018813 L55.7779902,11.3878437 L54.8860045,11.3878437 L54.8860045,13.7930535 C54.8860045,14.0882779 55.0316348,14.3053546 55.3137936,14.3053546 C55.5049334,14.3053546 55.6778694,14.2272069 55.7597864,14.1403763 L55.96913,14.7308249 C55.796194,14.8871201 55.541341,15 55.1135519,15 Z M56.3722905,12.7945007 C56.3722905,11.5788712 57.2915819,10.5976845 58.5749491,10.5976845 C59.894724,10.5976845 60.7138945,11.5788712 60.7138945,12.8639653 L60.7138945,13.0549928 L57.2369705,13.0549928 C57.3006838,13.7670043 57.8467975,14.357453 58.7296814,14.357453 C59.193878,14.357453 59.7035842,14.1837916 60.0312524,13.8625181 L60.413532,14.3748191 C59.976641,14.7829233 59.3577121,15 58.6477643,15 C57.3370914,15 56.3722905,14.1143271 56.3722905,12.7945007 Z M58.5749491,11.2402315 C57.6920653,11.2402315 57.2733781,11.9175109 57.2278686,12.4905933 L59.9129278,12.4905933 C59.894724,11.934877 59.5033425,11.2402315 58.5749491,11.2402315 Z M64.6667941,14.8958032 L64.6667941,12.2127352 C64.6667941,11.5180897 64.2936164,11.29233 63.7292989,11.29233 C63.2195928,11.29233 62.7553961,11.5875543 62.5187468,11.9001447 L62.5187468,14.8958032 L61.6995763,14.8958032 L61.6995763,10.7018813 L62.5187468,10.7018813 L62.5187468,11.29233 C62.8100075,10.9536903 63.3925288,10.5976845 64.0751709,10.5976845 C65.0035643,10.5976845 65.4859647,11.0665702 65.4859647,11.9522431 L65.4859647,14.8958032 L64.6667941,14.8958032 Z M70.9979655,15 C69.6326812,15 68.777103,14.0101302 68.777103,12.7945007 C68.777103,11.5875543 69.6326812,10.5976845 70.9979655,10.5976845 C72.3723517,10.5976845 73.2188279,11.5875543 73.2188279,12.7945007 C73.2188279,14.0101302 72.3723517,15 70.9979655,15 Z M70.9979655,14.3053546 C71.8808493,14.3053546 72.3632498,13.593343 72.3632498,12.7945007 C72.3632498,12.0043415 71.8808493,11.29233 70.9979655,11.29233 C70.1241835,11.29233 69.6326812,12.0043415 69.6326812,12.7945007 C69.6326812,13.593343 70.1241835,14.3053546 70.9979655,14.3053546 Z M77.1808294,14.8958032 L77.1808294,12.2127352 C77.1808294,11.5180897 76.8076517,11.29233 76.2433342,11.29233 C75.7336281,11.29233 75.2694314,11.5875543 75.0327821,11.9001447 L75.0327821,14.8958032 L74.2136115,14.8958032 L74.2136115,10.7018813 L75.0327821,10.7018813 L75.0327821,11.29233 C75.3240428,10.9536903 75.9065641,10.5976845 76.5892062,10.5976845 C77.5175995,10.5976845 78,11.0665702 78,11.9522431 L78,14.8958032 L77.1808294,14.8958032 Z" id="Listenon-Copy-3" fill="#FFFFFF" fill-rule="nonzero"></path>
                <g id="brand-icon" transform="translate(11.000000, 7.000000)" fill="#F90000" fill-rule="nonzero">
                    <path d="M11.5864768,9.52380952 L12.3768723,9.52380952 C12.8618053,9.52380952 13.2549211,9.9235553 13.2549211,10.4166667 C13.2549211,10.4796598 13.2483653,10.5424761 13.2353631,10.6040661 L10.1962564,25 L7.6097561,25 L10.7279861,10.2292672 C10.8148611,9.81774917 11.1725643,9.52380952 11.5864768,9.52380952 Z" id="Rectangle"></path>
                    <path d="M6.50253202,13.2313809 C3.72056078,10.5690165 3.95341299,6.43988661 6.51478735,4.03636319 C7.00500257,3.58031004 7.78934687,3.60496156 8.23054056,4.11031776 C8.69624499,4.6033482 8.65947881,5.37987114 8.16926365,5.84825006 C6.6128304,7.3150156 6.46576583,9.80481935 8.18151904,11.4441455 C8.6717342,11.9125245 8.69624499,12.6890474 8.23054056,13.1820779 C7.76483613,13.6751083 6.99274718,13.6997598 6.50253202,13.2313809 Z M5.64406826,15.0432678 C6.25683723,15.4130406 6.37939106,16.1525862 5.88917584,16.7688743 C5.64406826,17.1386471 5.27640687,17.2619048 4.90874547,17.2619048 C4.66363788,17.2619048 4.41853028,17.1386471 4.17342269,17.0153895 C1.72234674,15.1665254 0.129147364,11.9618275 0.00659356653,8.63387202 C-0.115960231,5.18265897 1.47723914,2.34773393 4.17342269,0.252354561 C4.66363788,-0.117418269 5.52151446,-0.117418269 5.88917584,0.498869782 C6.25683723,0.99190022 6.25683723,1.85470349 5.64406826,2.22447632 C3.5606537,3.82682526 2.45766952,6.04546226 2.45766952,8.63387202 C2.45766952,11.0990242 3.6832075,13.687434 5.64406826,15.0432678 Z M15.7656496,13.1820779 C15.2999451,12.6890474 15.3244559,11.9125245 15.8024157,11.4318198 C17.5181689,9.79249357 17.3833597,7.30268988 15.8146711,5.8359243 C15.3244559,5.37987114 15.2876898,4.59102244 15.7533942,4.097992 C16.2068433,3.60496156 16.9911876,3.56798427 17.4814028,4.03636319 C20.0427771,6.43988661 20.2756294,10.5690165 17.4936581,13.2313809 C17.003443,13.6997598 16.231354,13.6751083 15.7656496,13.1820779 Z M19.8277557,0.252354561 C22.5239392,2.34773393 24.1048832,5.18265897 23.9945848,8.63387202 C23.9945848,11.9618275 22.4013855,15.1665254 19.8277557,17.0153895 C19.5826481,17.1386471 19.3375405,17.2619048 19.0924329,17.2619048 C18.7247715,17.2619048 18.3571101,17.1386471 18.1120026,16.7688743 C17.6217873,16.1525862 17.7443412,15.4130406 18.3571101,15.0432678 C20.3179709,13.687434 21.5435089,11.0990242 21.5435089,8.63387202 C21.5435089,6.04546226 20.4405247,3.82682526 18.3571101,2.22447632 C17.7443412,1.85470349 17.7443412,0.99190022 18.1120026,0.498869782 C18.4796639,-0.117418269 19.3375405,-0.117418269 19.8277557,0.252354561 Z" id="Shape"></path>
                    <ellipse id="Oval" cx="12" cy="8.63095238" rx="2.63414634" ry="2.67857143"></ellipse>
                </g>
            </g>
        </g>
    </g>
</svg>