<?xml version="1.0" encoding="UTF-8"?>
<svg width="170px" height="40px" viewBox="0 0 170 40" version="1.1" xmlns="http://www.w3.org/2000/svg" xmlns:xlink="http://www.w3.org/1999/xlink">
    <title>Group 10</title>
    <defs>
        <linearGradient x1="50%" y1="0%" x2="50%" y2="100%" id="linearGradient-1">
            <stop stop-color="#F452FF" offset="0%"></stop>
            <stop stop-color="#832BC1" offset="100%"></stop>
        </linearGradient>
    </defs>
    <g id="Page-1" stroke="none" stroke-width="1" fill="none" fill-rule="evenodd">
        <g id="Images" transform="translate(-260.000000, -5054.000000)">
            <g id="Group-10" transform="translate(260.000000, 5054.000000)">
                <rect id="Rectangle" fill="#000000" x="0" y="0" width="170" height="40" rx="7"></rect>
                <g id="XMLID_632_" transform="translate(9.000000, 7.000000)">
                    <path d="M24.2135577,21.3731731 C23.9783654,21.9705769 23.4356731,22.8117308 22.6660577,23.4042308 C22.2217308,23.7464423 21.69125,24.0735577 20.9625962,24.2894231 C20.1858654,24.5196154 19.2291346,24.5974038 18.0383654,24.5974038 L7.15057692,24.5974038 C5.95990385,24.5974038 5.00317308,24.5196154 4.22634615,24.2894231 C3.49769231,24.0735577 2.96730769,23.7464423 2.52288462,23.4042308 C1.75336538,22.8116346 1.21057692,21.9705769 0.975384615,21.3731731 C0.501634615,20.1695192 0.496826923,18.8038462 0.496826923,17.94375 L0.496826923,17.94375 L0.496826923,7.05586538 L0.496826923,7.05586538 C0.496826923,6.19576923 0.501634615,4.83009615 0.975384615,3.62644231 C1.21057692,3.02903846 1.75326923,2.18788462 2.52288462,1.59538462 C2.96721154,1.25317308 3.49769231,0.926057692 4.22634615,0.710192308 C5.00307692,0.48 5.95980769,0.402211538 7.15057692,0.402211538 L7.15057692,0.402211538 L18.0384615,0.402211538 L18.0384615,0.402211538 C19.2291346,0.402211538 20.1858654,0.48 20.9626923,0.710192308 C21.6913462,0.926057692 22.2217308,1.25326923 22.6661538,1.59538462 C23.4356731,2.18798077 23.9784615,3.02903846 24.2136538,3.62644231 C24.6874038,4.83009615 24.6922115,6.19576923 24.6922115,7.05586538 L24.6922115,17.94375 C24.6922115,18.80375 24.6873077,20.1694231 24.2135577,21.3731731 Z" id="XMLID_662_" fill="url(#linearGradient-1)"></path>
                    <path d="M24.2135577,21.3731731 C23.9783654,21.9705769 23.4356731,22.8117308 22.6660577,23.4042308 C22.2217308,23.7464423 21.69125,24.0735577 20.9625962,24.2894231 C20.1858654,24.5196154 19.2291346,24.5974038 18.0383654,24.5974038 L7.15057692,24.5974038 C5.95990385,24.5974038 5.00317308,24.5196154 4.22634615,24.2894231 C3.49769231,24.0735577 2.96730769,23.7464423 2.52288462,23.4042308 C1.75336538,22.8116346 1.21057692,21.9705769 0.975384615,21.3731731 C0.501634615,20.1695192 0.496826923,18.8038462 0.496826923,17.94375 L0.496826923,17.94375 L0.496826923,7.05586538 L0.496826923,7.05586538 C0.496826923,6.19576923 0.501634615,4.83009615 0.975384615,3.62644231 C1.21057692,3.02903846 1.75326923,2.18788462 2.52288462,1.59538462 C2.96721154,1.25317308 3.49769231,0.926057692 4.22634615,0.710192308 C5.00307692,0.48 5.95980769,0.402211538 7.15057692,0.402211538 L7.15057692,0.402211538 L18.0384615,0.402211538 L18.0384615,0.402211538 C19.2291346,0.402211538 20.1858654,0.48 20.9626923,0.710192308 C21.6913462,0.926057692 22.2217308,1.25326923 22.6661538,1.59538462 C23.4356731,2.18798077 23.9784615,3.02903846 24.2136538,3.62644231 C24.6874038,4.83009615 24.6922115,6.19576923 24.6922115,7.05586538 L24.6922115,17.94375 C24.6922115,18.80375 24.6873077,20.1694231 24.2135577,21.3731731 Z" id="XMLID_660_"></path>
                    <g id="XMLID_648_" transform="translate(3.846154, 2.884615)" fill="#FFFFFF" fill-rule="nonzero">
                        <path d="M10.5030769,11.4245192 C10.14,11.0414423 9.50230769,10.7958654 8.74951923,10.7958654 C7.99663462,10.7958654 7.35894231,11.0414423 6.99586538,11.4245192 C6.80644231,11.6244231 6.70625,11.8293269 6.67471154,12.12125 C6.61355769,12.6865385 6.64788462,13.1732692 6.71413462,13.9514423 C6.77721154,14.6929808 6.89701923,15.6818269 7.05336538,16.6889423 C7.16461538,17.4056731 7.255,17.7925 7.33730769,18.0695192 C7.47076923,18.5184615 7.96951923,18.9110577 8.74951923,18.9110577 C9.52942308,18.9110577 10.0281731,18.5183654 10.1616346,18.0695192 C10.2439423,17.7925 10.3343269,17.4056731 10.4455769,16.6889423 C10.6019231,15.6818269 10.7217308,14.6929808 10.7848077,13.9514423 C10.8510577,13.1731731 10.8853846,12.6864423 10.8242308,12.12125 C10.7926923,11.8294231 10.6925,11.6244231 10.5030769,11.4245192 Z M6.77125,8.01365385 C6.77125,9.10721154 7.65778846,9.99375 8.75134615,9.99375 C9.845,9.99375 10.7315385,9.10721154 10.7315385,8.01365385 C10.7315385,6.92 9.845,6.03346154 8.75134615,6.03346154 C7.65778846,6.03346154 6.77125,6.92 6.77125,8.01365385 Z M8.72682692,0.199195318 C4.09576923,0.212403846 0.301057692,3.96942308 0.24375,8.60019231 C0.197211538,12.3514423 2.59182692,15.5602885 5.93557692,16.7364423 C6.01673077,16.765 6.09913462,16.6975962 6.08634615,16.6125 C6.0425,16.32125 6.00115385,16.0285577 5.96317308,15.7407692 C5.94971154,15.6390385 5.88490385,15.5513462 5.79096154,15.5102885 C3.14807692,14.3556731 1.30259615,11.7050962 1.33221154,8.63480769 C1.37105769,4.60557692 4.66125,1.32076923 8.69048077,1.28817308 C12.8096154,1.25490385 16.17125,4.59605769 16.17125,8.70759615 C16.17125,11.7471154 14.3338462,14.3651923 11.7115385,15.5105769 C11.6175962,15.5516346 11.5531731,15.6396154 11.5398077,15.74125 C11.5018269,16.0289423 11.4604808,16.3215385 11.4167308,16.6125 C11.4038462,16.6975962 11.48625,16.765 11.5674038,16.7365385 C14.8792308,15.5716346 17.2599038,12.4126923 17.2599038,8.70769231 C17.2597115,4.00778846 13.4296154,0.185769231 8.72682692,0.199195318 Z M8.57307692,4.10259615 C11.1983654,4.00096154 13.3664423,6.10711538 13.3664423,8.71019231 C13.3664423,10.0340385 12.8055769,11.2292308 11.9091346,12.0709615 C11.8330769,12.1423077 11.7922115,12.2436538 11.7980769,12.3477885 C11.8159615,12.6644231 11.8094231,12.9721154 11.7883654,13.3196154 C11.7826923,13.4122115 11.8865385,13.4713462 11.9631731,13.4191346 C13.4664423,12.3918269 14.4551923,10.6644231 14.4551923,8.71019231 C14.4551923,5.4925 11.775,2.88894231 8.52990385,3.01471154 C5.51413462,3.13163462 3.09461538,5.61807692 3.05596154,8.63596154 C3.03057692,10.6207692 4.02538462,12.3791346 5.54798077,13.4193269 C5.62442308,13.4715385 5.72798077,13.4123077 5.72230769,13.3198077 C5.70115385,12.9721154 5.69471154,12.6644231 5.7125,12.3477885 C5.71836538,12.24375 5.67759615,12.1424038 5.60173077,12.0711538 C4.67730769,11.2032692 4.10961538,9.95951923 4.14576923,8.58644231 C4.20942308,6.17009615 6.15759615,4.19615385 8.57307692,4.10259615 Z" id="Shape"></path>
                    </g>
                </g>
                <path d="M43.1499023,31 L44.2456055,27.7626953 L48.8110352,27.7626953 L49.9067383,31 L51.8740234,31 L47.5493164,19.0219727 L45.5405273,19.0219727 L41.2158203,31 L43.1499023,31 Z M48.3378906,26.2685547 L44.71875,26.2685547 L46.503418,21.0141602 L46.5532227,21.0141602 L48.3378906,26.2685547 Z M54.7709961,33.8886719 L54.7709961,29.5639648 L54.8125,29.5639648 C55.3105469,30.5351562 56.3066406,31.1494141 57.5600586,31.1494141 C59.7514648,31.1494141 61.2041016,29.3979492 61.2041016,26.6337891 C61.2041016,23.8696289 59.7431641,22.1264648 57.5268555,22.1264648 C56.2651367,22.1264648 55.2607422,22.765625 54.7460938,23.7700195 L54.7128906,23.7700195 L54.7128906,22.2675781 L52.9780273,22.2675781 L52.9780273,33.8886719 L54.7709961,33.8886719 Z M57.0537109,29.6303711 C55.6757812,29.6303711 54.7626953,28.4516602 54.7626953,26.6337891 C54.7626953,24.8325195 55.684082,23.637207 57.0537109,23.637207 C58.4731445,23.637207 59.3613281,24.8076172 59.3613281,26.6337891 C59.3613281,28.4682617 58.4731445,29.6303711 57.0537109,29.6303711 Z M64.375,33.8886719 L64.375,29.5639648 L64.4165039,29.5639648 C64.9145508,30.5351562 65.9106445,31.1494141 67.1640625,31.1494141 C69.3554688,31.1494141 70.8081055,29.3979492 70.8081055,26.6337891 C70.8081055,23.8696289 69.347168,22.1264648 67.1308594,22.1264648 C65.8691406,22.1264648 64.8647461,22.765625 64.3500977,23.7700195 L64.3168945,23.7700195 L64.3168945,22.2675781 L62.5820312,22.2675781 L62.5820312,33.8886719 L64.375,33.8886719 Z M66.6577148,29.6303711 C65.2797852,29.6303711 64.3666992,28.4516602 64.3666992,26.6337891 C64.3666992,24.8325195 65.2880859,23.637207 66.6577148,23.637207 C68.0771484,23.637207 68.965332,24.8076172 68.965332,26.6337891 C68.965332,28.4682617 68.0771484,29.6303711 66.6577148,29.6303711 Z M74.0454102,31 L74.0454102,19.0219727 L72.2524414,19.0219727 L72.2524414,31 L74.0454102,31 Z M79.6152344,31.1660156 C81.6157227,31.1660156 83.1264648,30.0288086 83.3754883,28.4350586 L81.6738281,28.4350586 C81.4331055,29.1987305 80.6777344,29.7133789 79.6567383,29.7133789 C78.2207031,29.7133789 77.3076172,28.7089844 77.3076172,27.1899414 L77.3076172,27.0820312 L83.4750977,27.0820312 L83.4750977,26.4677734 C83.4750977,23.8198242 81.9643555,22.1098633 79.5405273,22.1098633 C77.0751953,22.1098633 75.4980469,23.9360352 75.4980469,26.675293 C75.4980469,29.4311523 77.050293,31.1660156 79.6152344,31.1660156 Z M81.6821289,25.8286133 L77.315918,25.8286133 C77.4072266,24.5087891 78.2871094,23.5541992 79.5405273,23.5541992 C80.7939453,23.5541992 81.640625,24.4921875 81.6821289,25.8286133 Z M90.3813477,31 L90.3813477,26.9077148 L92.9545898,26.9077148 C95.3037109,26.9077148 96.9555664,25.2973633 96.9555664,22.956543 C96.9555664,20.6240234 95.3369141,19.0219727 93.0126953,19.0219727 L88.5219727,19.0219727 L88.5219727,31 L90.3813477,31 Z M92.5146484,25.347168 L90.3813477,25.347168 L90.3813477,20.5908203 L92.5229492,20.5908203 C94.1333008,20.5908203 95.0546875,21.4541016 95.0546875,22.9648438 C95.0546875,24.4755859 94.1333008,25.347168 92.5146484,25.347168 Z M102.118652,31.1660156 C104.617188,31.1660156 106.260742,29.4477539 106.260742,26.6337891 C106.260742,23.828125 104.608887,22.1098633 102.118652,22.1098633 C99.628418,22.1098633 97.9765625,23.828125 97.9765625,26.6337891 C97.9765625,29.4477539 99.6201172,31.1660156 102.118652,31.1660156 Z M102.118652,29.6884766 C100.71582,29.6884766 99.8027344,28.5761719 99.8027344,26.6337891 C99.8027344,24.699707 100.71582,23.5874023 102.118652,23.5874023 C103.521484,23.5874023 104.43457,24.699707 104.43457,26.6337891 C104.43457,28.5761719 103.529785,29.6884766 102.118652,29.6884766 Z M110.925781,31.1494141 C112.195801,31.1494141 113.191895,30.5102539 113.706543,29.5141602 L113.739746,29.5141602 L113.739746,31 L115.48291,31 L115.48291,19.0219727 L113.681641,19.0219727 L113.681641,23.7202148 L113.648438,23.7202148 C113.158691,22.7573242 112.162598,22.1264648 110.90918,22.1264648 C108.717773,22.1264648 107.256836,23.8779297 107.256836,26.6337891 C107.256836,29.3896484 108.717773,31.1494141 110.925781,31.1494141 Z M111.398926,29.6303711 C109.979492,29.6303711 109.091309,28.4765625 109.091309,26.6337891 C109.091309,24.7993164 109.979492,23.637207 111.398926,23.637207 C112.776855,23.637207 113.698242,24.8242188 113.698242,26.6337891 C113.698242,28.4599609 112.776855,29.6303711 111.398926,29.6303711 Z M121.052734,31.1660156 C123.152832,31.1660156 124.638672,29.9042969 124.82959,28.0449219 L123.103027,28.0449219 C122.895508,29.0576172 122.17334,29.6635742 121.069336,29.6635742 C119.674805,29.6635742 118.753418,28.5512695 118.753418,26.6337891 C118.753418,24.7578125 119.666504,23.6040039 121.052734,23.6040039 C122.223145,23.6040039 122.92041,24.3427734 123.103027,25.2724609 L124.812988,25.2724609 C124.655273,23.5541992 123.285645,22.1098633 121.036133,22.1098633 C118.554199,22.1098633 116.927246,23.8613281 116.927246,26.6337891 C116.927246,29.4560547 118.554199,31.1660156 121.052734,31.1660156 Z M128.65625,31.1494141 C129.801758,31.1494141 130.905762,30.5351562 131.412109,29.5639648 L131.453613,29.5639648 L131.453613,31 L133.171875,31 L133.171875,24.9819336 C133.171875,23.2304688 131.818848,22.1098633 129.702148,22.1098633 C127.543945,22.1098633 126.199219,23.2719727 126.099609,24.8491211 L127.792969,24.8491211 C127.950684,24.0688477 128.598145,23.5708008 129.635742,23.5708008 C130.731445,23.5708008 131.387207,24.1518555 131.387207,25.1230469 L131.387207,25.7954102 L128.996582,25.9365234 C126.921387,26.0527344 125.750977,26.9907227 125.750977,28.5180664 C125.750977,30.0869141 126.946289,31.1494141 128.65625,31.1494141 Z M129.154297,29.7299805 C128.191406,29.7299805 127.560547,29.2319336 127.560547,28.4682617 C127.560547,27.7211914 128.166504,27.2480469 129.237305,27.1733398 L131.387207,27.0405273 L131.387207,27.7294922 C131.387207,28.8666992 130.407715,29.7299805 129.154297,29.7299805 Z M138.185547,31.1660156 C140.244141,31.1660156 141.72998,30.0703125 141.72998,28.4765625 C141.72998,27.2148438 141.049316,26.5175781 139.264648,26.1025391 L137.845215,25.7788086 C136.898926,25.5629883 136.500488,25.1894531 136.500488,24.6416016 C136.500488,23.9443359 137.147949,23.4711914 138.119141,23.4711914 C139.123535,23.4711914 139.746094,24.0024414 139.845703,24.8491211 L141.530762,24.8491211 C141.472656,23.2387695 140.152832,22.1098633 138.119141,22.1098633 C136.110352,22.1098633 134.749023,23.1806641 134.749023,24.7412109 C134.749023,26.0112305 135.570801,26.8081055 137.230957,27.1899414 L138.650391,27.5219727 C139.60498,27.737793 139.928711,28.0698242 139.928711,28.6342773 C139.928711,29.3481445 139.264648,29.7963867 138.185547,29.7963867 C137.089844,29.7963867 136.467285,29.3481445 136.30127,28.4350586 L134.524902,28.4350586 C134.690918,30.0952148 136.002441,31.1660156 138.185547,31.1660156 Z M146.096191,31.0581055 C146.494629,31.0581055 146.893066,31.0249023 147.092285,30.9750977 L147.092285,29.5556641 C146.976074,29.5805664 146.685547,29.597168 146.50293,29.597168 C145.772461,29.597168 145.44043,29.2568359 145.44043,28.5014648 L145.44043,23.6870117 L147.100586,23.6870117 L147.100586,22.2675781 L145.44043,22.2675781 L145.44043,20.2006836 L143.63916,20.2006836 L143.63916,22.2675781 L142.369141,22.2675781 L142.369141,23.6870117 L143.63916,23.6870117 L143.63916,28.7006836 C143.63916,30.3857422 144.328125,31.0581055 146.096191,31.0581055 Z M151.848633,31.1660156 C153.907227,31.1660156 155.393066,30.0703125 155.393066,28.4765625 C155.393066,27.2148438 154.712402,26.5175781 152.927734,26.1025391 L151.508301,25.7788086 C150.562012,25.5629883 150.163574,25.1894531 150.163574,24.6416016 C150.163574,23.9443359 150.811035,23.4711914 151.782227,23.4711914 C152.786621,23.4711914 153.40918,24.0024414 153.508789,24.8491211 L155.193848,24.8491211 C155.135742,23.2387695 153.815918,22.1098633 151.782227,22.1098633 C149.773438,22.1098633 148.412109,23.1806641 148.412109,24.7412109 C148.412109,26.0112305 149.233887,26.8081055 150.894043,27.1899414 L152.313477,27.5219727 C153.268066,27.737793 153.591797,28.0698242 153.591797,28.6342773 C153.591797,29.3481445 152.927734,29.7963867 151.848633,29.7963867 C150.75293,29.7963867 150.130371,29.3481445 149.964355,28.4350586 L148.187988,28.4350586 C148.354004,30.0952148 149.665527,31.1660156 151.848633,31.1660156 Z" id="ApplePodcasts" fill="#FFFFFF" fill-rule="nonzero"></path>
                <path d="M42,14.8958032 L42,9.10419682 L42.9101895,9.10419682 L42.9101895,14.1316932 L45.6680638,14.1316932 L45.6680638,14.8958032 L42,14.8958032 Z M47.0087195,9.99855282 C46.7265607,9.99855282 46.4808095,9.78147612 46.4808095,9.50361795 C46.4808095,9.22575977 46.7265607,9 47.0087195,9 C47.2999801,9 47.5366294,9.22575977 47.5366294,9.50361795 C47.5366294,9.78147612 47.2999801,9.99855282 47.0087195,9.99855282 Z M46.6082361,14.8958032 L46.6082361,10.7018813 L47.4274066,10.7018813 L47.4274066,14.8958032 L46.6082361,14.8958032 Z M48.3038656,14.3487699 L48.6952471,13.7756874 C48.9956097,14.0882779 49.578131,14.3748191 50.1697542,14.3748191 C50.7886831,14.3748191 51.1163513,14.1316932 51.1163513,13.7756874 C51.1163513,13.3589001 50.615747,13.2199711 50.0514295,13.0984081 C49.3050741,12.9334298 48.4312922,12.7424023 48.4312922,11.8393632 C48.4312922,11.170767 49.0320173,10.5976845 50.1060409,10.5976845 C50.8614982,10.5976845 51.4076119,10.8581766 51.7807896,11.1968162 L51.4167138,11.7438495 C51.1618608,11.4486252 50.6703584,11.2315485 50.1151428,11.2315485 C49.5599272,11.2315485 49.2140552,11.4399421 49.2140552,11.7785818 C49.2140552,12.1432706 49.6873537,12.2648336 50.2334674,12.3863965 C50.9980266,12.5513748 51.9082162,12.7510854 51.9082162,13.7149059 C51.9082162,14.4356006 51.2892873,15 50.1333466,15 C49.3960931,15 48.7498585,14.7829233 48.3038656,14.3487699 Z M54.1135519,15 C53.4218078,15 53.0668339,14.6266281 53.0668339,13.9667149 L53.0668339,11.3878437 L52.3386823,11.3878437 L52.3386823,10.7018813 L53.0668339,10.7018813 L53.0668339,9.55571635 L53.8860045,9.55571635 L53.8860045,10.7018813 L54.7779902,10.7018813 L54.7779902,11.3878437 L53.8860045,11.3878437 L53.8860045,13.7930535 C53.8860045,14.0882779 54.0316348,14.3053546 54.3137936,14.3053546 C54.5049334,14.3053546 54.6778694,14.2272069 54.7597864,14.1403763 L54.96913,14.7308249 C54.796194,14.8871201 54.541341,15 54.1135519,15 Z M55.3722905,12.7945007 C55.3722905,11.5788712 56.2915819,10.5976845 57.5749491,10.5976845 C58.894724,10.5976845 59.7138945,11.5788712 59.7138945,12.8639653 L59.7138945,13.0549928 L56.2369705,13.0549928 C56.3006838,13.7670043 56.8467975,14.357453 57.7296814,14.357453 C58.193878,14.357453 58.7035842,14.1837916 59.0312524,13.8625181 L59.413532,14.3748191 C58.976641,14.7829233 58.3577121,15 57.6477643,15 C56.3370914,15 55.3722905,14.1143271 55.3722905,12.7945007 Z M57.5749491,11.2402315 C56.6920653,11.2402315 56.2733781,11.9175109 56.2278686,12.4905933 L58.9129278,12.4905933 C58.894724,11.934877 58.5033425,11.2402315 57.5749491,11.2402315 Z M63.6667941,14.8958032 L63.6667941,12.2127352 C63.6667941,11.5180897 63.2936164,11.29233 62.7292989,11.29233 C62.2195928,11.29233 61.7553961,11.5875543 61.5187468,11.9001447 L61.5187468,14.8958032 L60.6995763,14.8958032 L60.6995763,10.7018813 L61.5187468,10.7018813 L61.5187468,11.29233 C61.8100075,10.9536903 62.3925288,10.5976845 63.0751709,10.5976845 C64.0035643,10.5976845 64.4859647,11.0665702 64.4859647,11.9522431 L64.4859647,14.8958032 L63.6667941,14.8958032 Z M69.9979655,15 C68.6326812,15 67.777103,14.0101302 67.777103,12.7945007 C67.777103,11.5875543 68.6326812,10.5976845 69.9979655,10.5976845 C71.3723517,10.5976845 72.2188279,11.5875543 72.2188279,12.7945007 C72.2188279,14.0101302 71.3723517,15 69.9979655,15 Z M69.9979655,14.3053546 C70.8808493,14.3053546 71.3632498,13.593343 71.3632498,12.7945007 C71.3632498,12.0043415 70.8808493,11.29233 69.9979655,11.29233 C69.1241835,11.29233 68.6326812,12.0043415 68.6326812,12.7945007 C68.6326812,13.593343 69.1241835,14.3053546 69.9979655,14.3053546 Z M76.1808294,14.8958032 L76.1808294,12.2127352 C76.1808294,11.5180897 75.8076517,11.29233 75.2433342,11.29233 C74.7336281,11.29233 74.2694314,11.5875543 74.0327821,11.9001447 L74.0327821,14.8958032 L73.2136115,14.8958032 L73.2136115,10.7018813 L74.0327821,10.7018813 L74.0327821,11.29233 C74.3240428,10.9536903 74.9065641,10.5976845 75.5892062,10.5976845 C76.5175995,10.5976845 77,11.0665702 77,11.9522431 L77,14.8958032 L76.1808294,14.8958032 Z" id="Listenon-Copy" fill="#FFFFFF" fill-rule="nonzero"></path>
            </g>
        </g>
    </g>
</svg>