<?xml version="1.0" encoding="UTF-8"?>
<svg width="111px" height="40px" viewBox="0 0 111 40" version="1.1" xmlns="http://www.w3.org/2000/svg" xmlns:xlink="http://www.w3.org/1999/xlink">
    <title>Group 14</title>
    <g id="Page-1" stroke="none" stroke-width="1" fill="none" fill-rule="evenodd">
        <g id="Images" transform="translate(-440.000000, -5054.000000)">
            <g id="Group-14" transform="translate(440.000000, 5054.000000)">
                <rect id="Rectangle" fill="#000000" x="0" y="0" width="111" height="40" rx="7"></rect>
                <path d="M29.8942001,18.0815232 C25.8649081,15.6886367 19.218681,15.4686183 15.3722401,16.6360293 C14.7544272,16.8235076 14.1012383,16.4748218 13.9140585,15.8571582 C13.7268787,15.2390468 14.075266,14.5863057 14.6933774,14.3985288 C19.108821,13.0582676 26.4489868,13.3170952 31.0875834,16.0706089 C31.6431523,16.4004872 31.8254063,17.1180099 31.496125,17.6726831 C31.1665453,18.2282519 30.4484255,18.4114015 29.8942001,18.0815232 Z M29.7622488,21.6257001 C29.4795386,22.0843951 28.879787,22.2282877 28.421689,21.9466224 C25.062453,19.881823 19.9400845,19.283564 15.9658718,20.4899335 C15.4504556,20.6456181 14.906231,20.3551461 14.7496507,19.8406255 C14.5944139,19.3253585 14.8850352,18.7820295 15.3995558,18.6253 C19.9394875,17.2475729 25.583392,17.9147929 29.441625,20.2858866 C29.899723,20.5679997 30.0439141,21.1680499 29.7622488,21.6257001 Z M28.232718,25.0294174 C28.0080723,25.3978064 27.52848,25.5131892 27.1614344,25.2886928 C24.2261144,23.4946622 20.5314773,23.0895538 16.1803673,24.0833682 C15.7610785,24.1794956 15.3431332,23.9167871 15.2474535,23.4974983 C15.1514753,23.0783588 15.4132883,22.6604134 15.8334726,22.5647338 C20.5950647,21.4762846 24.6794359,21.9446819 27.9741889,23.9579845 C28.341533,24.1823317 28.4572143,24.6622225 28.232718,25.0294174 Z M22.5,7 C15.5965872,7 10,12.5964379 10,19.4998507 C10,26.4040099 15.5965872,32 22.5,32 C29.4037114,32 35,26.4040099 35,19.4998507 C35,12.5964379 29.4037114,7 22.5,7 L22.5,7 Z" id="Spotify_Icon_RGB_Green" fill="#1ED760"></path>
                <path d="M48.1879883,31.1992188 C50.9770508,31.1992188 52.753418,29.7797852 52.753418,27.5219727 C52.753418,25.7788086 51.7241211,24.7744141 49.2172852,24.2431641 L47.9057617,23.9692383 C46.3535156,23.637207 45.7392578,23.0561523 45.7392578,22.1845703 C45.7392578,21.0888672 46.7685547,20.4082031 48.1713867,20.4082031 C49.6240234,20.4082031 50.6118164,21.1469727 50.7280273,22.3505859 L52.5292969,22.3505859 C52.4711914,20.2587891 50.7363281,18.8227539 48.1962891,18.8227539 C45.6479492,18.8227539 43.8466797,20.2338867 43.8466797,22.2841797 C43.8466797,24.0107422 44.934082,25.1230469 47.3330078,25.6293945 L48.6362305,25.9033203 C50.2382812,26.2519531 50.8691406,26.8330078 50.8691406,27.7626953 C50.8691406,28.8334961 49.7817383,29.6137695 48.2626953,29.6137695 C46.6689453,29.6137695 45.5400391,28.8999023 45.3740234,27.7128906 L43.5644531,27.7128906 C43.6806641,29.8461914 45.4819336,31.1992188 48.1879883,31.1992188 Z M55.9990234,33.8886719 L55.9990234,29.5639648 L56.0405273,29.5639648 C56.5385742,30.5351562 57.534668,31.1494141 58.7880859,31.1494141 C60.9794922,31.1494141 62.4321289,29.3979492 62.4321289,26.6337891 C62.4321289,23.8696289 60.9711914,22.1264648 58.7548828,22.1264648 C57.4931641,22.1264648 56.4887695,22.765625 55.9741211,23.7700195 L55.940918,23.7700195 L55.940918,22.2675781 L54.2060547,22.2675781 L54.2060547,33.8886719 L55.9990234,33.8886719 Z M58.2817383,29.6303711 C56.9038086,29.6303711 55.9907227,28.4516602 55.9907227,26.6337891 C55.9907227,24.8325195 56.9121094,23.637207 58.2817383,23.637207 C59.7011719,23.637207 60.5893555,24.8076172 60.5893555,26.6337891 C60.5893555,28.4682617 59.7011719,29.6303711 58.2817383,29.6303711 Z M67.5620117,31.1660156 C70.0605469,31.1660156 71.7041016,29.4477539 71.7041016,26.6337891 C71.7041016,23.828125 70.0522461,22.1098633 67.5620117,22.1098633 C65.0717773,22.1098633 63.4199219,23.828125 63.4199219,26.6337891 C63.4199219,29.4477539 65.0634766,31.1660156 67.5620117,31.1660156 Z M67.5620117,29.6884766 C66.1591797,29.6884766 65.2460938,28.5761719 65.2460938,26.6337891 C65.2460938,24.699707 66.1591797,23.5874023 67.5620117,23.5874023 C68.9648438,23.5874023 69.8779297,24.699707 69.8779297,26.6337891 C69.8779297,28.5761719 68.9731445,29.6884766 67.5620117,29.6884766 Z M76.0703125,31.0581055 C76.46875,31.0581055 76.8671875,31.0249023 77.0664062,30.9750977 L77.0664062,29.5556641 C76.9501953,29.5805664 76.659668,29.597168 76.4770508,29.597168 C75.746582,29.597168 75.4145508,29.2568359 75.4145508,28.5014648 L75.4145508,23.6870117 L77.074707,23.6870117 L77.074707,22.2675781 L75.4145508,22.2675781 L75.4145508,20.2006836 L73.6132812,20.2006836 L73.6132812,22.2675781 L72.3432617,22.2675781 L72.3432617,23.6870117 L73.6132812,23.6870117 L73.6132812,28.7006836 C73.6132812,30.3857422 74.3022461,31.0581055 76.0703125,31.0581055 Z M79.4985352,20.8564453 C80.0712891,20.8564453 80.527832,20.3916016 80.527832,19.8271484 C80.527832,19.2543945 80.0712891,18.7978516 79.4985352,18.7978516 C78.9257812,18.7978516 78.4609375,19.2543945 78.4609375,19.8271484 C78.4609375,20.3916016 78.9257812,20.8564453 79.4985352,20.8564453 Z M80.3950195,31 L80.3950195,22.2675781 L78.6020508,22.2675781 L78.6020508,31 L80.3950195,31 Z M84.5537109,31 L84.5537109,23.6870117 L86.296875,23.6870117 L86.296875,22.2841797 L84.5288086,22.2841797 L84.5288086,21.4624023 C84.5288086,20.6904297 84.894043,20.300293 85.6743164,20.300293 C85.9150391,20.300293 86.1557617,20.3168945 86.3300781,20.3500977 L86.3300781,19.0219727 C86.0976562,18.9804688 85.690918,18.9389648 85.3256836,18.9389648 C83.5493164,18.9389648 82.7524414,19.7358398 82.7524414,21.4291992 L82.7524414,22.2841797 L81.5488281,22.2841797 L81.5488281,23.6870117 L82.7524414,23.6870117 L82.7524414,31 L84.5537109,31 Z M88.5795898,34.2539062 C90.3891602,34.2539062 91.2524414,33.5732422 91.9995117,31.456543 L95.2700195,22.2675781 L93.3774414,22.2675781 L91.1694336,29.3730469 L91.1362305,29.3730469 L88.9282227,22.2675781 L86.9858398,22.2675781 L90.1401367,31.0083008 C90.1401367,31.0166016 89.9824219,31.53125 89.9824219,31.5478516 C89.7084961,32.4443359 89.2602539,32.7929688 88.4301758,32.7929688 C88.2807617,32.7929688 87.9819336,32.7929688 87.8491211,32.7597656 L87.8491211,34.2124023 C87.9819336,34.2373047 88.4301758,34.2539062 88.5795898,34.2539062 Z" id="Spotify" fill="#FFFFFF" fill-rule="nonzero"></path>
                <path d="M44,14.8958032 L44,9.10419682 L44.9101895,9.10419682 L44.9101895,14.1316932 L47.6680638,14.1316932 L47.6680638,14.8958032 L44,14.8958032 Z M49.0087195,9.99855282 C48.7265607,9.99855282 48.4808095,9.78147612 48.4808095,9.50361795 C48.4808095,9.22575977 48.7265607,9 49.0087195,9 C49.2999801,9 49.5366294,9.22575977 49.5366294,9.50361795 C49.5366294,9.78147612 49.2999801,9.99855282 49.0087195,9.99855282 Z M48.6082361,14.8958032 L48.6082361,10.7018813 L49.4274066,10.7018813 L49.4274066,14.8958032 L48.6082361,14.8958032 Z M50.3038656,14.3487699 L50.6952471,13.7756874 C50.9956097,14.0882779 51.578131,14.3748191 52.1697542,14.3748191 C52.7886831,14.3748191 53.1163513,14.1316932 53.1163513,13.7756874 C53.1163513,13.3589001 52.615747,13.2199711 52.0514295,13.0984081 C51.3050741,12.9334298 50.4312922,12.7424023 50.4312922,11.8393632 C50.4312922,11.170767 51.0320173,10.5976845 52.1060409,10.5976845 C52.8614982,10.5976845 53.4076119,10.8581766 53.7807896,11.1968162 L53.4167138,11.7438495 C53.1618608,11.4486252 52.6703584,11.2315485 52.1151428,11.2315485 C51.5599272,11.2315485 51.2140552,11.4399421 51.2140552,11.7785818 C51.2140552,12.1432706 51.6873537,12.2648336 52.2334674,12.3863965 C52.9980266,12.5513748 53.9082162,12.7510854 53.9082162,13.7149059 C53.9082162,14.4356006 53.2892873,15 52.1333466,15 C51.3960931,15 50.7498585,14.7829233 50.3038656,14.3487699 Z M56.1135519,15 C55.4218078,15 55.0668339,14.6266281 55.0668339,13.9667149 L55.0668339,11.3878437 L54.3386823,11.3878437 L54.3386823,10.7018813 L55.0668339,10.7018813 L55.0668339,9.55571635 L55.8860045,9.55571635 L55.8860045,10.7018813 L56.7779902,10.7018813 L56.7779902,11.3878437 L55.8860045,11.3878437 L55.8860045,13.7930535 C55.8860045,14.0882779 56.0316348,14.3053546 56.3137936,14.3053546 C56.5049334,14.3053546 56.6778694,14.2272069 56.7597864,14.1403763 L56.96913,14.7308249 C56.796194,14.8871201 56.541341,15 56.1135519,15 Z M57.3722905,12.7945007 C57.3722905,11.5788712 58.2915819,10.5976845 59.5749491,10.5976845 C60.894724,10.5976845 61.7138945,11.5788712 61.7138945,12.8639653 L61.7138945,13.0549928 L58.2369705,13.0549928 C58.3006838,13.7670043 58.8467975,14.357453 59.7296814,14.357453 C60.193878,14.357453 60.7035842,14.1837916 61.0312524,13.8625181 L61.413532,14.3748191 C60.976641,14.7829233 60.3577121,15 59.6477643,15 C58.3370914,15 57.3722905,14.1143271 57.3722905,12.7945007 Z M59.5749491,11.2402315 C58.6920653,11.2402315 58.2733781,11.9175109 58.2278686,12.4905933 L60.9129278,12.4905933 C60.894724,11.934877 60.5033425,11.2402315 59.5749491,11.2402315 Z M65.6667941,14.8958032 L65.6667941,12.2127352 C65.6667941,11.5180897 65.2936164,11.29233 64.7292989,11.29233 C64.2195928,11.29233 63.7553961,11.5875543 63.5187468,11.9001447 L63.5187468,14.8958032 L62.6995763,14.8958032 L62.6995763,10.7018813 L63.5187468,10.7018813 L63.5187468,11.29233 C63.8100075,10.9536903 64.3925288,10.5976845 65.0751709,10.5976845 C66.0035643,10.5976845 66.4859647,11.0665702 66.4859647,11.9522431 L66.4859647,14.8958032 L65.6667941,14.8958032 Z M71.9979655,15 C70.6326812,15 69.777103,14.0101302 69.777103,12.7945007 C69.777103,11.5875543 70.6326812,10.5976845 71.9979655,10.5976845 C73.3723517,10.5976845 74.2188279,11.5875543 74.2188279,12.7945007 C74.2188279,14.0101302 73.3723517,15 71.9979655,15 Z M71.9979655,14.3053546 C72.8808493,14.3053546 73.3632498,13.593343 73.3632498,12.7945007 C73.3632498,12.0043415 72.8808493,11.29233 71.9979655,11.29233 C71.1241835,11.29233 70.6326812,12.0043415 70.6326812,12.7945007 C70.6326812,13.593343 71.1241835,14.3053546 71.9979655,14.3053546 Z M78.1808294,14.8958032 L78.1808294,12.2127352 C78.1808294,11.5180897 77.8076517,11.29233 77.2433342,11.29233 C76.7336281,11.29233 76.2694314,11.5875543 76.0327821,11.9001447 L76.0327821,14.8958032 L75.2136115,14.8958032 L75.2136115,10.7018813 L76.0327821,10.7018813 L76.0327821,11.29233 C76.3240428,10.9536903 76.9065641,10.5976845 77.5892062,10.5976845 C78.5175995,10.5976845 79,11.0665702 79,11.9522431 L79,14.8958032 L78.1808294,14.8958032 Z" id="Listenon" fill="#FFFFFF" fill-rule="nonzero"></path>
            </g>
        </g>
    </g>
</svg>