<?xml version="1.0" encoding="UTF-8"?>
<svg width="154px" height="40px" viewBox="0 0 154 40" version="1.1" xmlns="http://www.w3.org/2000/svg" xmlns:xlink="http://www.w3.org/1999/xlink">
    <title>Group 13</title>
    <defs>
        <polygon id="path-1" points="0.0178571429 0.162202381 24.8375 0.162202381 24.8375 24.9821429 0.0178571429 24.9821429"></polygon>
    </defs>
    <g id="Page-1" stroke="none" stroke-width="1" fill="none" fill-rule="evenodd">
        <g id="Images" transform="translate(-463.000000, -5114.000000)">
            <g id="Group-13" transform="translate(463.000000, 5114.000000)">
                <rect id="Rectangle" fill="#000000" x="0" y="0" width="154" height="40" rx="7"></rect>
                <path d="M44,14.8958032 L44,9.10419682 L44.9101895,9.10419682 L44.9101895,14.1316932 L47.6680638,14.1316932 L47.6680638,14.8958032 L44,14.8958032 Z M49.0087195,9.99855282 C48.7265607,9.99855282 48.4808095,9.78147612 48.4808095,9.50361795 C48.4808095,9.22575977 48.7265607,9 49.0087195,9 C49.2999801,9 49.5366294,9.22575977 49.5366294,9.50361795 C49.5366294,9.78147612 49.2999801,9.99855282 49.0087195,9.99855282 Z M48.6082361,14.8958032 L48.6082361,10.7018813 L49.4274066,10.7018813 L49.4274066,14.8958032 L48.6082361,14.8958032 Z M50.3038656,14.3487699 L50.6952471,13.7756874 C50.9956097,14.0882779 51.578131,14.3748191 52.1697542,14.3748191 C52.7886831,14.3748191 53.1163513,14.1316932 53.1163513,13.7756874 C53.1163513,13.3589001 52.615747,13.2199711 52.0514295,13.0984081 C51.3050741,12.9334298 50.4312922,12.7424023 50.4312922,11.8393632 C50.4312922,11.170767 51.0320173,10.5976845 52.1060409,10.5976845 C52.8614982,10.5976845 53.4076119,10.8581766 53.7807896,11.1968162 L53.4167138,11.7438495 C53.1618608,11.4486252 52.6703584,11.2315485 52.1151428,11.2315485 C51.5599272,11.2315485 51.2140552,11.4399421 51.2140552,11.7785818 C51.2140552,12.1432706 51.6873537,12.2648336 52.2334674,12.3863965 C52.9980266,12.5513748 53.9082162,12.7510854 53.9082162,13.7149059 C53.9082162,14.4356006 53.2892873,15 52.1333466,15 C51.3960931,15 50.7498585,14.7829233 50.3038656,14.3487699 Z M56.1135519,15 C55.4218078,15 55.0668339,14.6266281 55.0668339,13.9667149 L55.0668339,11.3878437 L54.3386823,11.3878437 L54.3386823,10.7018813 L55.0668339,10.7018813 L55.0668339,9.55571635 L55.8860045,9.55571635 L55.8860045,10.7018813 L56.7779902,10.7018813 L56.7779902,11.3878437 L55.8860045,11.3878437 L55.8860045,13.7930535 C55.8860045,14.0882779 56.0316348,14.3053546 56.3137936,14.3053546 C56.5049334,14.3053546 56.6778694,14.2272069 56.7597864,14.1403763 L56.96913,14.7308249 C56.796194,14.8871201 56.541341,15 56.1135519,15 Z M57.3722905,12.7945007 C57.3722905,11.5788712 58.2915819,10.5976845 59.5749491,10.5976845 C60.894724,10.5976845 61.7138945,11.5788712 61.7138945,12.8639653 L61.7138945,13.0549928 L58.2369705,13.0549928 C58.3006838,13.7670043 58.8467975,14.357453 59.7296814,14.357453 C60.193878,14.357453 60.7035842,14.1837916 61.0312524,13.8625181 L61.413532,14.3748191 C60.976641,14.7829233 60.3577121,15 59.6477643,15 C58.3370914,15 57.3722905,14.1143271 57.3722905,12.7945007 Z M59.5749491,11.2402315 C58.6920653,11.2402315 58.2733781,11.9175109 58.2278686,12.4905933 L60.9129278,12.4905933 C60.894724,11.934877 60.5033425,11.2402315 59.5749491,11.2402315 Z M65.6667941,14.8958032 L65.6667941,12.2127352 C65.6667941,11.5180897 65.2936164,11.29233 64.7292989,11.29233 C64.2195928,11.29233 63.7553961,11.5875543 63.5187468,11.9001447 L63.5187468,14.8958032 L62.6995763,14.8958032 L62.6995763,10.7018813 L63.5187468,10.7018813 L63.5187468,11.29233 C63.8100075,10.9536903 64.3925288,10.5976845 65.0751709,10.5976845 C66.0035643,10.5976845 66.4859647,11.0665702 66.4859647,11.9522431 L66.4859647,14.8958032 L65.6667941,14.8958032 Z M71.9979655,15 C70.6326812,15 69.777103,14.0101302 69.777103,12.7945007 C69.777103,11.5875543 70.6326812,10.5976845 71.9979655,10.5976845 C73.3723517,10.5976845 74.2188279,11.5875543 74.2188279,12.7945007 C74.2188279,14.0101302 73.3723517,15 71.9979655,15 Z M71.9979655,14.3053546 C72.8808493,14.3053546 73.3632498,13.593343 73.3632498,12.7945007 C73.3632498,12.0043415 72.8808493,11.29233 71.9979655,11.29233 C71.1241835,11.29233 70.6326812,12.0043415 70.6326812,12.7945007 C70.6326812,13.593343 71.1241835,14.3053546 71.9979655,14.3053546 Z M78.1808294,14.8958032 L78.1808294,12.2127352 C78.1808294,11.5180897 77.8076517,11.29233 77.2433342,11.29233 C76.7336281,11.29233 76.2694314,11.5875543 76.0327821,11.9001447 L76.0327821,14.8958032 L75.2136115,14.8958032 L75.2136115,10.7018813 L76.0327821,10.7018813 L76.0327821,11.29233 C76.3240428,10.9536903 76.9065641,10.5976845 77.5892062,10.5976845 C78.5175995,10.5976845 79,11.0665702 79,11.9522431 L79,14.8958032 L78.1808294,14.8958032 Z" id="Listenon-Copy-3" fill="#FFFFFF" fill-rule="nonzero"></path>
                <path d="M45.9633789,31 L45.9633789,26.9077148 L48.5366211,26.9077148 C50.8857422,26.9077148 52.5375977,25.2973633 52.5375977,22.956543 C52.5375977,20.6240234 50.9189453,19.0219727 48.5947266,19.0219727 L44.1040039,19.0219727 L44.1040039,31 L45.9633789,31 Z M48.0966797,25.347168 L45.9633789,25.347168 L45.9633789,20.5908203 L48.1049805,20.5908203 C49.715332,20.5908203 50.6367188,21.4541016 50.6367188,22.9648438 C50.6367188,24.4755859 49.715332,25.347168 48.0966797,25.347168 Z M57.7006836,31.1660156 C60.1992188,31.1660156 61.8427734,29.4477539 61.8427734,26.6337891 C61.8427734,23.828125 60.190918,22.1098633 57.7006836,22.1098633 C55.2104492,22.1098633 53.5585938,23.828125 53.5585938,26.6337891 C53.5585938,29.4477539 55.2021484,31.1660156 57.7006836,31.1660156 Z M57.7006836,29.6884766 C56.2978516,29.6884766 55.3847656,28.5761719 55.3847656,26.6337891 C55.3847656,24.699707 56.2978516,23.5874023 57.7006836,23.5874023 C59.1035156,23.5874023 60.0166016,24.699707 60.0166016,26.6337891 C60.0166016,28.5761719 59.1118164,29.6884766 57.7006836,29.6884766 Z M66.9643555,31.1660156 C69.0644531,31.1660156 70.550293,29.9042969 70.7412109,28.0449219 L69.0146484,28.0449219 C68.8071289,29.0576172 68.0849609,29.6635742 66.980957,29.6635742 C65.5864258,29.6635742 64.6650391,28.5512695 64.6650391,26.6337891 C64.6650391,24.7578125 65.578125,23.6040039 66.9643555,23.6040039 C68.1347656,23.6040039 68.8320312,24.3427734 69.0146484,25.2724609 L70.7246094,25.2724609 C70.5668945,23.5541992 69.1972656,22.1098633 66.9477539,22.1098633 C64.4658203,22.1098633 62.8388672,23.8613281 62.8388672,26.6337891 C62.8388672,29.4560547 64.4658203,31.1660156 66.9643555,31.1660156 Z M73.8706055,31 L73.8706055,27.8623047 L74.6176758,27.1235352 L77.5810547,31 L79.6645508,31 L75.9042969,26.027832 L79.5234375,22.2675781 L77.4150391,22.2675781 L73.887207,26.0112305 L73.8706055,26.0112305 L73.8706055,19.0219727 L72.0776367,19.0219727 L72.0776367,31 L73.8706055,31 Z M84.3129883,31.1660156 C86.3134766,31.1660156 87.8242188,30.0288086 88.0732422,28.4350586 L86.371582,28.4350586 C86.1308594,29.1987305 85.3754883,29.7133789 84.3544922,29.7133789 C82.918457,29.7133789 82.0053711,28.7089844 82.0053711,27.1899414 L82.0053711,27.0820312 L88.1728516,27.0820312 L88.1728516,26.4677734 C88.1728516,23.8198242 86.6621094,22.1098633 84.2382812,22.1098633 C81.7729492,22.1098633 80.1958008,23.9360352 80.1958008,26.675293 C80.1958008,29.4311523 81.7480469,31.1660156 84.3129883,31.1660156 Z M86.3798828,25.8286133 L82.0136719,25.8286133 C82.1049805,24.5087891 82.9848633,23.5541992 84.2382812,23.5541992 C85.4916992,23.5541992 86.3383789,24.4921875 86.3798828,25.8286133 Z M92.5390625,31.0581055 C92.9375,31.0581055 93.3359375,31.0249023 93.5351562,30.9750977 L93.5351562,29.5556641 C93.4189453,29.5805664 93.128418,29.597168 92.9458008,29.597168 C92.215332,29.597168 91.8833008,29.2568359 91.8833008,28.5014648 L91.8833008,23.6870117 L93.543457,23.6870117 L93.543457,22.2675781 L91.8833008,22.2675781 L91.8833008,20.2006836 L90.0820312,20.2006836 L90.0820312,22.2675781 L88.8120117,22.2675781 L88.8120117,23.6870117 L90.0820312,23.6870117 L90.0820312,28.7006836 C90.0820312,30.3857422 90.7709961,31.0581055 92.5390625,31.0581055 Z M103.728516,31.1992188 C106.484375,31.1992188 108.360352,29.746582 108.816895,27.2729492 L106.96582,27.2729492 C106.592285,28.7172852 105.405273,29.5722656 103.736816,29.5722656 C101.537109,29.5722656 100.142578,27.8041992 100.142578,25.0068359 C100.142578,22.234375 101.553711,20.449707 103.728516,20.449707 C105.355469,20.449707 106.633789,21.4541016 106.96582,22.9897461 L108.808594,22.9897461 C108.493164,20.4912109 106.442871,18.8227539 103.728516,18.8227539 C100.383301,18.8227539 98.2416992,21.2133789 98.2416992,25.0068359 C98.2416992,28.8251953 100.366699,31.1992188 103.728516,31.1992188 Z M112.834473,31.1494141 C113.97998,31.1494141 115.083984,30.5351562 115.590332,29.5639648 L115.631836,29.5639648 L115.631836,31 L117.350098,31 L117.350098,24.9819336 C117.350098,23.2304688 115.99707,22.1098633 113.880371,22.1098633 C111.722168,22.1098633 110.377441,23.2719727 110.277832,24.8491211 L111.971191,24.8491211 C112.128906,24.0688477 112.776367,23.5708008 113.813965,23.5708008 C114.909668,23.5708008 115.56543,24.1518555 115.56543,25.1230469 L115.56543,25.7954102 L113.174805,25.9365234 C111.099609,26.0527344 109.929199,26.9907227 109.929199,28.5180664 C109.929199,30.0869141 111.124512,31.1494141 112.834473,31.1494141 Z M113.33252,29.7299805 C112.369629,29.7299805 111.73877,29.2319336 111.73877,28.4682617 C111.73877,27.7211914 112.344727,27.2480469 113.415527,27.1733398 L115.56543,27.0405273 L115.56543,27.7294922 C115.56543,28.8666992 114.585938,29.7299805 113.33252,29.7299805 Z M122.36377,31.1660156 C124.422363,31.1660156 125.908203,30.0703125 125.908203,28.4765625 C125.908203,27.2148438 125.227539,26.5175781 123.442871,26.1025391 L122.023438,25.7788086 C121.077148,25.5629883 120.678711,25.1894531 120.678711,24.6416016 C120.678711,23.9443359 121.326172,23.4711914 122.297363,23.4711914 C123.301758,23.4711914 123.924316,24.0024414 124.023926,24.8491211 L125.708984,24.8491211 C125.650879,23.2387695 124.331055,22.1098633 122.297363,22.1098633 C120.288574,22.1098633 118.927246,23.1806641 118.927246,24.7412109 C118.927246,26.0112305 119.749023,26.8081055 121.40918,27.1899414 L122.828613,27.5219727 C123.783203,27.737793 124.106934,28.0698242 124.106934,28.6342773 C124.106934,29.3481445 123.442871,29.7963867 122.36377,29.7963867 C121.268066,29.7963867 120.645508,29.3481445 120.479492,28.4350586 L118.703125,28.4350586 C118.869141,30.0952148 120.180664,31.1660156 122.36377,31.1660156 Z M130.274414,31.0581055 C130.672852,31.0581055 131.071289,31.0249023 131.270508,30.9750977 L131.270508,29.5556641 C131.154297,29.5805664 130.86377,29.597168 130.681152,29.597168 C129.950684,29.597168 129.618652,29.2568359 129.618652,28.5014648 L129.618652,23.6870117 L131.278809,23.6870117 L131.278809,22.2675781 L129.618652,22.2675781 L129.618652,20.2006836 L127.817383,20.2006836 L127.817383,22.2675781 L126.547363,22.2675781 L126.547363,23.6870117 L127.817383,23.6870117 L127.817383,28.7006836 C127.817383,30.3857422 128.506348,31.0581055 130.274414,31.0581055 Z M136.026855,31.1660156 C138.085449,31.1660156 139.571289,30.0703125 139.571289,28.4765625 C139.571289,27.2148438 138.890625,26.5175781 137.105957,26.1025391 L135.686523,25.7788086 C134.740234,25.5629883 134.341797,25.1894531 134.341797,24.6416016 C134.341797,23.9443359 134.989258,23.4711914 135.960449,23.4711914 C136.964844,23.4711914 137.587402,24.0024414 137.687012,24.8491211 L139.37207,24.8491211 C139.313965,23.2387695 137.994141,22.1098633 135.960449,22.1098633 C133.95166,22.1098633 132.590332,23.1806641 132.590332,24.7412109 C132.590332,26.0112305 133.412109,26.8081055 135.072266,27.1899414 L136.491699,27.5219727 C137.446289,27.737793 137.77002,28.0698242 137.77002,28.6342773 C137.77002,29.3481445 137.105957,29.7963867 136.026855,29.7963867 C134.931152,29.7963867 134.308594,29.3481445 134.142578,28.4350586 L132.366211,28.4350586 C132.532227,30.0952148 133.84375,31.1660156 136.026855,31.1660156 Z" id="PocketCasts" fill="#FFFFFF" fill-rule="nonzero"></path>
                <g id="Group-2" transform="translate(10.000000, 7.000000)">
                    <g id="Group-3">
                        <mask id="mask-2" fill="white">
                            <use xlink:href="#path-1"></use>
                        </mask>
                        <g id="Clip-2"></g>
                        <path d="M24.8375,12.5809524 C24.8375,19.439881 19.2776786,25 12.41875,25 C5.55982143,25 0,19.439881 0,12.5809524 C0,5.72232143 5.55982143,0.162202381 12.41875,0.162202381 C19.2776786,0.162202381 24.8375,5.72232143 24.8375,12.5809524" id="Fill-1" fill="#F43E37" mask="url(#mask-2)"></path>
                    </g>
                    <path d="M12.533631,18.5604167 C9.29494048,18.5604167 6.66934524,15.9348214 6.66934524,12.696131 C6.66934524,9.45714286 9.29494048,6.83154762 12.533631,6.83154762 C15.772619,6.83154762 18.3982143,9.45714286 18.3982143,12.696131 L16.2657738,12.696131 C16.2657738,10.6348214 14.5949405,8.9639881 12.533631,8.9639881 C10.472619,8.9639881 8.80178571,10.6348214 8.80178571,12.696131 C8.80178571,14.7571429 10.472619,16.4276786 12.533631,16.4276786 L12.533631,18.5604167 Z M2.75952381,12.696131 C2.75952381,7.29791667 7.13571429,2.92202381 12.533631,2.92202381 C17.9318452,2.92202381 22.3077381,7.29791667 22.3077381,12.696131 L19.8642857,12.696131 C19.8642857,8.64761905 16.5824405,5.36547619 12.533631,5.36547619 C8.48511905,5.36547619 5.20327381,8.64761905 5.20327381,12.696131 C5.20327381,16.7446429 8.48511905,20.0264881 12.533631,20.0264881 L12.533631,22.4702381 C7.13571429,22.4702381 2.75952381,18.0940476 2.75952381,12.696131 L2.75952381,12.696131 Z" id="Fill-4" fill="#FFFFFE"></path>
                </g>
            </g>
        </g>
    </g>
</svg>